<svg width="114" height="48" viewBox="0 0 114 48" fill="none" xmlns="http://www.w3.org/2000/svg">
<g clip-path="url(#clip0_9_1018)">
<path d="M22.6859 0C22.6818 0.203435 22.6737 0.405515 22.6737 0.60895C22.6737 4.16771 22.6764 7.72648 22.6682 11.2852C22.6682 11.6202 22.8096 11.8372 23.0719 12.0054C23.0977 12.023 23.1344 12.0393 23.1453 12.0637C23.3342 12.5221 23.7637 12.7378 24.1062 13.047C24.4133 13.325 24.6376 13.6912 24.9352 13.9828C25.1567 14.1984 25.2628 14.5456 25.6419 14.5985C25.7765 14.6175 25.8281 14.8006 25.9328 14.8955C26.21 15.1478 26.5131 15.4163 26.7061 15.7174C26.8774 15.986 27.1233 16.1704 27.2824 16.4254C27.4359 16.6736 27.7281 16.7088 27.9075 16.9313C28.1834 17.2744 28.5422 17.5117 28.5395 18.0447C28.5205 21.6713 28.5395 25.2979 28.5137 28.9244C28.5123 29.1971 28.39 29.5063 28.11 29.7301C27.9062 29.8928 27.6683 30.0935 27.5664 30.3336C27.4876 30.5207 27.3204 30.4801 27.2185 30.6008C27.0187 30.8354 26.8882 31.1582 26.5552 31.2694C26.4764 31.2951 26.4887 31.3792 26.5036 31.4457C26.5267 31.5501 26.615 31.5447 26.6925 31.5461C27.1002 31.5474 27.508 31.5433 27.9157 31.5488C28.3166 31.5528 28.5409 31.5922 28.53 32.1089C28.5042 33.3512 28.5286 34.5935 28.53 35.8372C28.5314 39.2834 28.5314 42.7296 28.5327 46.1744C28.5327 46.6477 28.5354 46.6491 29.0084 46.6477C31.7021 46.6477 34.3972 46.645 37.0909 46.6437V47.9321C34.8715 47.928 32.6535 47.9253 30.4341 47.9226C29.1661 47.9213 27.898 47.9104 26.63 47.9307C26.3038 47.9362 26.2291 47.8182 26.2359 47.5279C26.2495 46.862 26.2399 46.1948 26.2399 45.5275C26.2399 41.0872 26.2399 36.6469 26.2399 32.2065C26.2399 31.7807 26.0415 31.5881 25.6025 31.5867C24.9909 31.5854 24.3793 31.5895 23.7691 31.584C23.6115 31.5827 23.4538 31.5623 23.2975 31.5379C23.1303 31.5108 23.1167 31.3697 23.2146 31.2965C23.6482 30.9737 23.992 30.5546 24.3861 30.1925C24.7735 29.8372 25.0969 29.391 25.4911 29.0302C25.7153 28.8254 25.8947 28.5745 26.1394 28.3969C26.2753 28.2992 26.2277 28.1717 26.2291 28.0619C26.2386 27.2481 26.2345 26.4344 26.2345 25.622C26.2345 22.9217 26.2304 20.2215 26.2386 17.5212C26.2386 17.1428 26.1489 16.8797 25.8186 16.6288C25.4612 16.3562 25.1934 15.9602 24.9094 15.6008C24.7436 15.3906 24.4677 15.3228 24.3223 15.1044C24.204 14.9267 23.9838 14.8521 23.9132 14.6189C23.8398 14.3802 23.6155 14.2174 23.4103 14.1089C23.1901 13.9936 23.0556 13.816 22.8993 13.6505C22.8585 13.6071 22.8327 13.5637 22.7702 13.5732C22.7009 13.5841 22.6846 13.6383 22.6818 13.6966C22.6778 13.8214 22.675 13.9448 22.675 14.0696C22.675 16.9285 22.6669 19.7875 22.6818 22.6451C22.6846 23.0953 22.6343 23.57 22.357 23.867C22.111 24.1288 21.9384 24.5452 21.5008 24.6075C21.4532 24.6143 21.4097 24.6347 21.4057 24.6862C21.3649 25.0958 20.8865 25.1772 20.7669 25.5325C20.7506 25.5786 20.6119 25.5895 20.6486 25.6953C20.6881 25.8092 20.7995 25.7766 20.8838 25.778C21.3594 25.7834 21.8365 25.801 22.3095 25.7753C22.6207 25.7576 22.6818 25.8688 22.6818 26.1591C22.6737 33.2319 22.6764 40.3046 22.675 47.3788C22.675 47.49 22.6547 47.6012 22.6438 47.7124C22.6193 47.9687 22.4508 48.0406 22.2388 47.9796C22.0023 47.9104 21.7685 47.928 21.5334 47.928C14.4689 47.928 7.40432 47.928 0.339772 47.928C0.226968 47.928 0.114163 47.9335 0 47.9362V46.6477C2.81739 46.6477 5.63614 46.6464 8.45354 46.6559C8.70361 46.6559 8.79467 46.5908 8.78515 46.3372C8.76884 45.9317 8.78244 45.5248 8.78244 45.1179C8.78244 38.5781 8.78515 32.0397 8.77564 25.5C8.77564 25.1365 8.9496 24.9453 9.20647 24.7364C9.41441 24.5669 9.59653 24.339 9.75147 24.1247C9.85476 23.9823 10.0015 23.8643 10.1089 23.7802C10.3794 23.5714 10.5438 23.2689 10.8088 23.0777C11.0793 22.8811 11.2098 22.5447 11.5387 22.4091C11.6623 22.3576 11.6569 22.1772 11.7738 22.07C12.032 21.834 12.2685 21.5682 12.5512 21.358C12.698 21.2495 12.592 21.042 12.785 20.9444C13.2131 20.7274 13.5066 20.3313 13.8668 20.0248C14.1305 19.801 14.3289 19.4905 14.6089 19.264C14.7257 19.169 14.6659 19.0077 14.6659 18.8761C14.6714 15.5777 14.6727 12.2807 14.6754 8.98235C14.6754 8.80197 14.6972 8.61752 14.6714 8.44121C14.6116 8.01807 14.8086 7.76174 15.1321 7.50812C15.4583 7.25179 15.7328 6.9263 16.0019 6.6008C16.1093 6.4706 16.2234 6.25089 16.4626 6.21292C16.5456 6.19936 16.6801 6.07594 16.6733 6.01491C16.642 5.73552 16.903 5.66364 17.0321 5.54836C17.3053 5.30424 17.5676 5.06825 17.7565 4.74683C17.8149 4.64782 17.9658 4.58679 18.0705 4.50406C18.3518 4.28435 18.5461 3.98191 18.8193 3.76898C19.0667 3.57639 19.2134 3.30244 19.4608 3.11256C19.6701 2.95117 19.8522 2.74502 20.0153 2.53481C20.2314 2.25406 20.5644 2.08453 20.7587 1.81058C21.0074 1.45931 21.4818 1.33454 21.6218 0.881554C21.6612 0.754067 21.9099 0.779836 21.9819 0.615731C22.0838 0.382459 22.3937 0.292947 22.4168 0.00271247C22.5079 0.00271247 22.5976 0.00271247 22.6886 0.00271247L22.6859 0ZM20.332 36.1681C20.332 32.8467 20.3279 29.5266 20.3388 26.2052C20.3388 25.9028 20.2708 25.7915 19.9474 25.8024C19.1224 25.8309 18.2961 25.8227 17.4697 25.8268C17.3855 25.8268 17.2754 25.8566 17.2536 25.7251C17.2346 25.6166 17.3053 25.5908 17.3909 25.5352C17.5323 25.4443 17.6355 25.2952 17.7619 25.1772C17.9848 24.9683 18.1493 24.6971 18.3749 24.4936C18.6644 24.2332 19.0082 24.023 19.1387 23.6338C19.2121 23.4168 19.4445 23.5144 19.5423 23.3856C19.7014 23.1713 19.8794 22.9896 20.1077 22.8404C20.2749 22.7319 20.3863 22.5623 20.37 22.3264C20.3428 21.9439 20.3361 21.5601 20.3361 21.1763C20.3347 15.6184 20.3347 10.0606 20.3361 4.5027C20.3361 4.36708 20.3469 4.23146 20.3496 4.09719C20.3524 3.91952 20.1553 3.90189 20.1308 3.96157C20.0506 4.15686 19.7394 4.17178 19.7951 4.48914C19.8509 4.80786 19.3358 4.53254 19.3113 4.8499C19.3086 4.88109 19.2923 4.91907 19.2705 4.93941C19.1754 5.0235 19.1414 5.17404 18.9661 5.17268C18.8764 5.17268 18.8139 5.26762 18.7446 5.34221C18.4687 5.63652 18.3232 6.01626 18.0487 6.31464C17.8557 6.5235 17.5458 6.46382 17.3773 6.76355C17.1925 7.0904 16.7521 7.28434 16.9845 7.77123C16.9981 7.79836 16.9859 7.83769 16.9859 7.87159C16.9859 16.0388 16.9845 24.2047 16.9927 32.372C16.9927 32.707 16.8908 32.9498 16.6434 33.1586C16.2126 33.5234 15.7763 33.8842 15.4542 34.3616C15.3672 34.4904 15.2544 34.6247 15.0669 34.6695C14.8712 34.7156 14.9473 34.9136 14.935 35.0411C14.9174 35.2147 15.0777 35.1781 15.1824 35.1794C15.4759 35.1848 15.7709 35.1821 16.0658 35.1821C16.6801 35.1821 16.9873 35.4877 16.9873 36.0989C16.9873 39.476 16.9941 42.8544 16.9791 46.2314C16.9777 46.5854 17.0824 46.664 17.4154 46.6532C18.1846 46.6288 18.9539 46.645 19.7245 46.645C20.1331 46.645 20.3374 46.4393 20.3374 46.0279C20.3374 42.7404 20.3374 39.4543 20.3374 36.1668L20.332 36.1681ZM11.1187 35.5578C11.1187 36.2576 11.1187 36.9588 11.1187 37.6586C11.1187 40.5176 11.1241 43.3751 11.1133 46.2341C11.1133 46.5528 11.1935 46.6613 11.5278 46.6545C12.4778 46.6328 13.4292 46.6423 14.3805 46.6477C14.5885 46.6477 14.6782 46.5962 14.6782 46.3643C14.6714 42.7377 14.6727 39.1111 14.6782 35.4846C14.6782 35.2432 14.5925 35.1781 14.3656 35.1808C13.5392 35.1903 12.7129 35.1848 11.8866 35.1821C11.7507 35.1821 11.6148 35.174 11.4802 35.1564C11.3511 35.1401 11.3239 35.0153 11.4123 34.9733C11.6868 34.8417 11.7942 34.5257 12.1122 34.4281C12.5104 34.306 12.577 33.8408 12.857 33.5682C13.3802 33.0583 13.8437 32.4832 14.3982 32.0018C14.6388 31.7929 14.6809 31.5637 14.6795 31.2653C14.6687 28.0456 14.6727 24.8259 14.6727 21.6062C14.6727 21.4936 14.6768 21.3797 14.6646 21.2671C14.6469 21.1085 14.5572 21.1003 14.4634 21.2048C14.2732 21.4177 14.0475 21.5967 13.8518 21.8029C13.72 21.9412 13.6045 22.2287 13.3014 22.184C13.1709 22.165 13.1696 22.3033 13.1682 22.3793C13.1655 22.6342 12.9453 22.7807 12.8108 22.8973C12.4452 23.2133 12.1679 23.6311 11.7534 23.8752C11.589 23.9715 11.6379 24.1464 11.4979 24.2319C11.2519 24.3838 11.1133 24.5953 11.1133 24.9141C11.1214 28.462 11.1187 32.0085 11.1187 35.5564V35.5578Z" fill="#B3804C"/>
<path d="M39.0909 21.1482C39.8584 21.0511 40.4149 20.8472 40.7603 20.5365C41.1057 20.2063 41.2784 19.7014 41.2784 19.0217V2.82559C41.2784 2.14589 41.1057 1.65069 40.7603 1.33997C40.4149 1.00983 39.8584 0.796213 39.0909 0.699114V0.320427H47.6108C49.5489 0.320427 51.1225 0.747663 52.3314 1.60214C53.5403 2.45661 54.1447 3.63151 54.1447 5.12684C54.1447 6.15609 53.7801 7.09795 53.051 7.95242C52.3218 8.80689 51.228 9.3992 49.7696 9.72934C51.7269 10.0401 53.1757 10.6809 54.116 11.6519C55.0562 12.6229 55.5264 13.8658 55.5264 15.3805C55.5264 17.3225 54.8164 18.8372 53.3964 19.9247C51.9956 20.9928 49.8944 21.5269 47.0927 21.5269H39.0909V21.1482ZM44.6461 19.08C44.6461 19.7403 44.8188 20.2258 45.1642 20.5365C45.5096 20.8278 46.0565 20.9734 46.8049 20.9734H47.4957C48.8198 20.9734 49.8752 20.4879 50.6619 19.5169C51.4679 18.5459 51.8708 17.1963 51.8708 15.4679C51.8708 13.6424 51.3815 12.2928 50.4029 11.4189C49.4434 10.5256 47.985 10.0789 46.0277 10.0789H44.6461V19.08ZM47.0927 9.46717C48.2633 9.46717 49.1172 9.12732 49.6545 8.44763C50.211 7.74851 50.4892 6.72897 50.4892 5.389C50.4892 4.41801 50.3165 3.59267 49.9711 2.91297C49.6449 2.23328 49.2131 1.72836 48.6758 1.39823C48.1577 1.04867 47.6204 0.873892 47.064 0.873892H46.6898C45.999 0.873892 45.4809 1.02925 45.1355 1.33997C44.8092 1.63127 44.6461 2.10705 44.6461 2.76733V9.46717H47.0927Z" fill="white"/>
<path d="M59.1439 21.1482C59.8923 21.0511 60.4295 20.8472 60.7558 20.5365C61.1012 20.2063 61.2739 19.7014 61.2739 19.0217V2.82559C61.2739 2.14589 61.1012 1.65069 60.7558 1.33997C60.4295 1.00983 59.8923 0.796213 59.1439 0.699114V0.320427H73.363L73.8811 5.73856H73.4494C73.1423 4.06845 72.4707 2.84501 71.4345 2.06821C70.3983 1.272 68.9975 0.873892 67.2321 0.873892H66.8579C65.3803 0.873892 64.6416 1.52446 64.6416 2.82559V9.26326H66.0807C67.2129 9.26326 68.0572 9.23413 68.6137 9.17587C69.458 9.09819 70.1201 8.78747 70.5998 8.24372C71.0795 7.69996 71.3769 6.84549 71.4921 5.6803H71.895V13.6036H71.4921C71.3578 12.3025 71.0507 11.38 70.571 10.8363C70.1105 10.2731 69.458 9.96237 68.6137 9.90411C68.038 9.86527 67.1841 9.84585 66.052 9.84585C65.7449 9.82643 65.2748 9.81673 64.6416 9.81673V19.0217C64.6416 19.7014 64.8143 20.1966 65.1597 20.5073C65.5243 20.8181 66.0903 20.9734 66.8579 20.9734H67.779C69.5636 20.9734 70.974 20.5656 72.0102 19.75C73.0464 18.9149 73.7372 17.5458 74.0826 15.6427H74.5144L73.9963 21.5269H59.1439V21.1482Z" fill="white"/>
<path d="M85.1472 21.8182C83.8616 21.8182 82.5663 21.6725 81.2614 21.3812C79.9758 21.0705 79.0931 20.7113 78.6133 20.3034L78.3255 14.4775H78.7285C79.3809 16.6525 80.3212 18.3226 81.5493 19.4878C82.7774 20.6336 84.1302 21.2065 85.6078 21.2065C86.8167 21.2065 87.7378 20.8763 88.371 20.216C89.0234 19.5364 89.3496 18.6139 89.3496 17.4487C89.3496 16.5942 89.1098 15.8175 88.63 15.1183C88.1695 14.3998 87.5938 13.7784 86.903 13.254C86.2122 12.7297 85.2816 12.0986 84.111 11.3606C82.9405 10.6421 82.0002 10.0109 81.2902 9.46717C80.5802 8.92341 79.9854 8.29227 79.5056 7.57373C79.0259 6.8552 78.786 6.05899 78.786 5.18509C78.786 4.19468 79.0355 3.31108 79.5344 2.53429C80.0525 1.73808 80.7817 1.11664 81.722 0.669984C82.6814 0.223328 83.7944 0 85.0609 0C86.2314 0 87.3252 0.135939 88.3422 0.407816C89.3784 0.679694 90.1748 1.03896 90.7313 1.48562L91.0191 6.23377H90.6161C89.9253 4.33062 89.0714 2.91297 88.0544 1.98082C87.0565 1.04867 85.982 0.582594 84.8306 0.582594C84.0247 0.582594 83.3435 0.893312 82.787 1.51475C82.2497 2.13618 81.981 2.88384 81.981 3.75774C81.981 4.43743 82.1825 5.05887 82.5855 5.62204C82.9885 6.18522 83.497 6.69984 84.111 7.16592C84.7251 7.61257 85.5406 8.15633 86.5576 8.79718C87.8049 9.5934 88.8028 10.2925 89.5511 10.8945C90.3187 11.4771 90.9711 12.1859 91.5084 13.021C92.0457 13.8561 92.3144 14.8076 92.3144 15.8757C92.3144 17.6429 91.7195 19.08 90.5298 20.1869C89.3401 21.2744 87.5459 21.8182 85.1472 21.8182Z" fill="white"/>
<path d="M96.8372 0.320427H112.639L113.273 6.08812H112.87C112.428 4.34033 111.699 3.02949 110.682 2.1556C109.684 1.26229 108.418 0.815633 106.883 0.815633H106.422V19.1382C106.422 19.7791 106.604 20.2549 106.969 20.5656C107.334 20.8763 107.909 21.0705 108.696 21.1482V21.5269H100.867V21.1482C101.634 21.0511 102.191 20.8569 102.536 20.5656C102.882 20.2549 103.054 19.7791 103.054 19.1382V0.815633H102.594C101.078 0.815633 99.8115 1.26229 98.7945 2.1556C97.7775 3.04891 97.0483 4.35975 96.607 6.08812H96.204L96.8372 0.320427Z" fill="white"/>
<path d="M39.0909 35.7032C39.4905 35.6537 39.7801 35.5498 39.9599 35.3915C40.1397 35.2233 40.2295 34.966 40.2295 34.6197V26.3674C40.2295 26.0211 40.1397 25.7687 39.9599 25.6104C39.7801 25.4422 39.4905 25.3334 39.0909 25.2839V25.0909H43.5255C44.5343 25.0909 45.3533 25.3086 45.9825 25.744C46.6117 26.1794 46.9263 26.778 46.9263 27.5399C46.9263 28.0643 46.7366 28.5443 46.357 28.9796C45.9775 29.415 45.4082 29.7168 44.6491 29.885C45.6679 30.0433 46.422 30.3699 46.9114 30.8646C47.4008 31.3593 47.6455 31.9926 47.6455 32.7644C47.6455 33.7539 47.2759 34.5257 46.5368 35.0798C45.8077 35.624 44.7141 35.8961 43.2558 35.8961H39.0909V35.7032ZM41.9824 34.6494C41.9824 34.9858 42.0723 35.2332 42.2521 35.3915C42.4318 35.5399 42.7165 35.6141 43.106 35.6141H43.4656C44.1547 35.6141 44.7041 35.3668 45.1136 34.872C45.533 34.3773 45.7428 33.6896 45.7428 32.8089C45.7428 31.8788 45.4881 31.1911 44.9787 30.7459C44.4793 30.2907 43.7203 30.0631 42.7015 30.0631H41.9824V34.6494ZM43.2558 29.7514C43.8651 29.7514 44.3095 29.5783 44.5892 29.2319C44.8788 28.8757 45.0237 28.3562 45.0237 27.6735C45.0237 27.1788 44.9338 26.7582 44.754 26.4119C44.5842 26.0656 44.3595 25.8083 44.0798 25.6401C43.8102 25.462 43.5305 25.3729 43.2409 25.3729H43.0461C42.6865 25.3729 42.4169 25.4521 42.2371 25.6104C42.0673 25.7588 41.9824 26.0013 41.9824 26.3377V29.7514H43.2558Z" fill="white"/>
<path d="M49.2287 35.7032C49.6282 35.6537 49.9179 35.5498 50.0976 35.3915C50.2774 35.2332 50.3673 34.9809 50.3673 34.6345V26.3674C50.3673 26.0211 50.2774 25.7687 50.0976 25.6104C49.9179 25.4422 49.6282 25.3334 49.2287 25.2839V25.0909H54.0228C55.0915 25.0909 55.9405 25.3284 56.5697 25.8034C57.1989 26.2783 57.5136 26.9165 57.5136 27.718C57.5136 28.3414 57.2589 28.8757 56.7495 29.321C56.2401 29.7663 55.5759 30.0681 54.7569 30.2264L57.2589 34.3377C57.5385 34.8028 57.8132 35.1342 58.0829 35.3321C58.3525 35.53 58.6921 35.6488 59.1016 35.6883V35.8961C58.6721 35.9654 58.2527 36 57.8432 36C57.2039 36 56.6696 35.8862 56.2401 35.6587C55.8206 35.4212 55.4611 35.0402 55.1614 34.5158L53.3487 31.3099C52.9991 30.6964 52.6545 30.3896 52.3149 30.3896H52.1202V34.6345C52.1202 34.9908 52.225 35.248 52.4348 35.4063C52.6445 35.5647 53.0091 35.6636 53.5284 35.7032V35.8961H49.2287V35.7032ZM52.3299 30.0928C53.1389 30.0928 53.7831 30.0136 54.2625 29.8553C54.742 29.697 55.0865 29.4546 55.2963 29.128C55.506 28.8015 55.6109 28.3661 55.6109 27.8219C55.6109 27.06 55.4261 26.4614 55.0566 26.026C54.697 25.5906 54.2326 25.3729 53.6633 25.3729H53.1988C52.8393 25.3729 52.5696 25.4521 52.3898 25.6104C52.2101 25.7588 52.1202 26.0112 52.1202 26.3674V30.0928H52.3299Z" fill="white"/>
<path d="M60.5327 35.7032C60.8823 35.6636 61.1919 35.5399 61.4616 35.3321C61.7412 35.1144 61.9859 34.7533 62.1957 34.2486C62.6451 33.1404 63.3143 31.3049 64.2032 28.7421C64.7925 27.0897 65.227 25.8726 65.5066 25.0909H65.7463L69.1472 34.3525C69.307 34.8077 69.5117 35.1392 69.7614 35.347C70.0211 35.5548 70.3257 35.6735 70.6753 35.7032V35.8961H65.7014V35.7032C66.2707 35.6636 66.6752 35.5844 66.9149 35.4657C67.1546 35.347 67.2744 35.1639 67.2744 34.9165C67.2744 34.7681 67.2395 34.595 67.1696 34.3971L66.7051 33.0019H63.0496L62.6901 34.1893C62.6202 34.4267 62.5852 34.6395 62.5852 34.8275C62.5852 35.1045 62.6851 35.3123 62.8848 35.4509C63.0946 35.5795 63.4391 35.6636 63.9186 35.7032V35.8961H60.5327V35.7032ZM66.6003 32.6902L64.9073 27.7032C64.1782 29.6525 63.594 31.3148 63.1545 32.6902H66.6003Z" fill="white"/>
<path d="M72.1788 35.7032C72.5484 35.6636 72.823 35.535 73.0028 35.3173C73.1926 35.0897 73.3024 34.7137 73.3324 34.1893C73.3823 33.3878 73.4073 32.3538 73.4073 31.0872C73.4073 30.167 73.4023 29.4744 73.3923 29.0093L73.3774 26.8126V26.0854C73.3774 25.8677 73.2775 25.6896 73.0777 25.5511C72.878 25.4125 72.6033 25.3235 72.2537 25.2839V25.0909H74.9954L80.0292 32.3934L80.0442 29.9889C80.0442 28.5245 80.0292 27.5102 79.9992 26.9462C79.9693 26.4218 79.8245 26.026 79.5648 25.7588C79.3051 25.4818 78.9106 25.3235 78.3812 25.2839V25.0909H81.6322V25.2839C81.2527 25.3235 80.9631 25.4521 80.7633 25.6698C80.5735 25.8875 80.4637 26.2387 80.4337 26.7236C80.3738 27.6042 80.3438 28.752 80.3438 30.167C80.3438 31.2159 80.3488 32.0075 80.3588 32.5418L80.3738 35.065V35.8961H80.1191L73.707 26.501C73.7269 30.5282 73.7519 33.086 73.7819 34.1744C73.8018 35.1144 74.2962 35.624 75.265 35.7032V35.8961H72.1788V35.7032Z" fill="white"/>
<path d="M83.2411 35.7032C83.6406 35.6537 83.9303 35.5498 84.1101 35.3915C84.2898 35.2233 84.3797 34.966 84.3797 34.6197V26.3674C84.3797 26.0211 84.2898 25.7687 84.1101 25.6104C83.9303 25.4422 83.6406 25.3334 83.2411 25.2839V25.0909H87.5558C88.6145 25.0909 89.5134 25.3284 90.2525 25.8034C91.0016 26.2783 91.5609 26.9215 91.9305 27.7329C92.31 28.5344 92.4998 29.4298 92.4998 30.4193C92.4998 31.5473 92.295 32.522 91.8855 33.3433C91.486 34.1645 90.9017 34.7978 90.1327 35.2431C89.3736 35.6784 88.4647 35.8961 87.406 35.8961H83.2411V35.7032ZM86.1326 34.6494C86.1326 34.9858 86.2175 35.2332 86.3873 35.3915C86.5671 35.5399 86.8417 35.6141 87.2113 35.6141H87.3761C88.0353 35.6141 88.6046 35.4113 89.084 35.0056C89.5734 34.59 89.9429 34.0112 90.1926 33.269C90.4523 32.5269 90.5821 31.6661 90.5821 30.6865C90.5821 28.9054 90.2925 27.5746 89.7132 26.6939C89.1339 25.8133 88.3449 25.3729 87.3461 25.3729H87.2113C86.8417 25.3729 86.5671 25.4521 86.3873 25.6104C86.2175 25.7588 86.1326 26.0013 86.1326 26.3377V34.6494Z" fill="white"/>
<path d="M94.1836 35.7032C94.5731 35.6537 94.8528 35.5498 95.0225 35.3915C95.2023 35.2233 95.2922 34.966 95.2922 34.6197V26.3674C95.2922 26.0211 95.2023 25.7687 95.0225 25.6104C94.8528 25.4422 94.5731 25.3334 94.1836 25.2839V25.0909H101.585L101.854 27.8516H101.629C101.47 27.0007 101.12 26.3773 100.581 25.9815C100.041 25.5758 99.3123 25.3729 98.3934 25.3729H98.1987C97.4296 25.3729 97.0451 25.7044 97.0451 26.3674V29.6475H97.7941C98.3834 29.6475 98.8229 29.6327 99.1125 29.603C99.552 29.5634 99.8966 29.4051 100.146 29.128C100.396 28.851 100.551 28.4156 100.611 27.8219H100.82V31.859H100.611C100.541 31.1961 100.381 30.7261 100.131 30.449C99.8916 30.1621 99.552 30.0037 99.1125 29.9741C98.8129 29.9543 98.3684 29.9444 97.7792 29.9444C97.6194 29.9345 97.3747 29.9295 97.0451 29.9295V34.6197C97.0451 34.966 97.135 35.2183 97.3147 35.3767C97.5045 35.535 97.7991 35.6141 98.1987 35.6141H98.6781C99.6069 35.6141 100.341 35.4063 100.88 34.9908C101.42 34.5653 101.779 33.8677 101.959 32.898H102.184L101.914 35.8961H94.1836V35.7032Z" fill="white"/>
<path d="M104.014 35.7032C104.414 35.6537 104.703 35.5498 104.883 35.3915C105.063 35.2233 105.153 34.966 105.153 34.6197V26.3674C105.153 26.0211 105.063 25.7687 104.883 25.6104C104.703 25.4422 104.414 25.3334 104.014 25.2839V25.0909H108.329C109.388 25.0909 110.286 25.3284 111.026 25.8034C111.775 26.2783 112.334 26.9215 112.703 27.7329C113.083 28.5344 113.273 29.4298 113.273 30.4193C113.273 31.5473 113.068 32.522 112.659 33.3433C112.259 34.1645 111.675 34.7978 110.906 35.2431C110.147 35.6784 109.238 35.8961 108.179 35.8961H104.014V35.7032ZM106.906 34.6494C106.906 34.9858 106.99 35.2332 107.16 35.3915C107.34 35.5399 107.615 35.6141 107.984 35.6141H108.149C108.808 35.6141 109.378 35.4113 109.857 35.0056C110.346 34.59 110.716 34.0112 110.966 33.269C111.225 32.5269 111.355 31.6661 111.355 30.6865C111.355 28.9054 111.065 27.5746 110.486 26.6939C109.907 25.8133 109.118 25.3729 108.119 25.3729H107.984C107.615 25.3729 107.34 25.4521 107.16 25.6104C106.99 25.7588 106.906 26.0013 106.906 26.3377V34.6494Z" fill="white"/>
<path d="M39.0909 47.7321C39.4045 47.6933 39.6318 47.6117 39.7729 47.4874C39.9139 47.3631 39.9845 47.165 39.9845 46.8932V40.4031C39.9845 40.1312 39.9139 39.9331 39.7729 39.8088C39.6318 39.6768 39.4045 39.5913 39.0909 39.5525V39.401H42.8532C43.6919 39.401 44.3581 39.5874 44.8519 39.9603C45.3457 40.3332 45.5926 40.8342 45.5926 41.4634C45.5926 41.9528 45.3928 42.3722 44.993 42.7218C44.5933 43.0713 44.072 43.3083 43.4293 43.4326L45.3928 46.6601C45.6122 47.0252 45.8278 47.2855 46.0394 47.4408C46.251 47.5962 46.5175 47.6894 46.8389 47.7205V47.8836C46.5019 47.938 46.1727 47.9651 45.8513 47.9651C45.3497 47.9651 44.9303 47.8758 44.5933 47.6972C44.2641 47.5107 43.9819 47.2117 43.7468 46.8L42.3242 44.2831C42.0498 43.8015 41.7794 43.5607 41.5129 43.5607H41.3601V46.8932C41.3601 47.1728 41.4424 47.3748 41.607 47.4991C41.7716 47.6234 42.0577 47.701 42.4652 47.7321V47.8836H39.0909V47.7321ZM41.5247 43.3277C42.1596 43.3277 42.6651 43.2655 43.0413 43.1413C43.4176 43.017 43.688 42.8267 43.8526 42.5703C44.0172 42.314 44.0995 41.9722 44.0995 41.5449C44.0995 40.9468 43.9545 40.4769 43.6645 40.1351C43.3823 39.7933 43.0178 39.6224 42.5711 39.6224H42.2066C41.9244 39.6224 41.7128 39.6845 41.5717 39.8088C41.4306 39.9253 41.3601 40.1234 41.3601 40.4031V43.3277H41.5247Z" fill="white"/>
<path d="M48.1031 47.7321C48.4087 47.6933 48.6282 47.6117 48.7615 47.4874C48.9025 47.3554 48.9731 47.1534 48.9731 46.8815V40.4031C48.9731 40.1312 48.9025 39.9331 48.7615 39.8088C48.6282 39.6768 48.4087 39.5913 48.1031 39.5525V39.401H53.9111L54.1227 41.5683H53.9464C53.8209 40.9002 53.5466 40.4108 53.1234 40.1001C52.7001 39.7816 52.1279 39.6224 51.4068 39.6224H51.254C50.6504 39.6224 50.3487 39.8826 50.3487 40.4031V42.9781H50.9365C51.399 42.9781 51.7439 42.9665 51.9712 42.9432C52.316 42.9121 52.5864 42.7878 52.7824 42.5703C52.9784 42.3528 53.0998 42.011 53.1469 41.5449H53.3115V44.7143H53.1469C53.092 44.1938 52.9666 43.8248 52.7706 43.6073C52.5825 43.3821 52.316 43.2578 51.9712 43.2345C51.736 43.2189 51.3872 43.2112 50.9248 43.2112C50.7994 43.2034 50.6073 43.1995 50.3487 43.1995V46.8815C50.3487 47.1534 50.4192 47.3515 50.5603 47.4758C50.7092 47.6001 50.9404 47.6622 51.254 47.6622H51.6302C52.3591 47.6622 52.9352 47.4991 53.3585 47.1728C53.7818 46.8388 54.0639 46.2912 54.205 45.5299H54.3814L54.1697 47.8836H48.1031V47.7321Z" fill="white"/>
<path d="M58.4894 48.0001C57.9642 48.0001 57.4352 47.9418 56.9022 47.8253C56.377 47.701 56.0165 47.5573 55.8205 47.3942L55.7029 45.0638H55.8675C56.134 45.9338 56.5181 46.6019 57.0197 47.0679C57.5214 47.5263 58.074 47.7554 58.6775 47.7554C59.1713 47.7554 59.5475 47.6234 59.8062 47.3592C60.0727 47.0874 60.2059 46.7184 60.2059 46.2523C60.2059 45.9105 60.108 45.5998 59.912 45.3202C59.7239 45.0328 59.4887 44.7842 59.2066 44.5744C58.9244 44.3647 58.5443 44.1122 58.0661 43.8171C57.588 43.5297 57.2039 43.2772 56.9139 43.0597C56.6239 42.8422 56.3809 42.5897 56.185 42.3023C55.989 42.0149 55.8911 41.6964 55.8911 41.3469C55.8911 40.9507 55.993 40.5973 56.1967 40.2865C56.4084 39.9681 56.7062 39.7195 57.0903 39.5408C57.4822 39.3622 57.9368 39.2728 58.4541 39.2728C58.9322 39.2728 59.379 39.3272 59.7944 39.436C60.2177 39.5447 60.543 39.6884 60.7703 39.8671L60.8878 41.7663H60.7232C60.4411 41.0051 60.0923 40.438 59.6769 40.0652C59.2693 39.6923 58.8303 39.5059 58.3601 39.5059C58.0309 39.5059 57.7526 39.6302 57.5253 39.8787C57.3058 40.1273 57.1961 40.4264 57.1961 40.7759C57.1961 41.0478 57.2784 41.2964 57.443 41.5216C57.6076 41.7469 57.8153 41.9528 58.0661 42.1392C58.3169 42.3179 58.6501 42.5354 59.0655 42.7917C59.575 43.1102 59.9825 43.3898 60.2882 43.6306C60.6018 43.8637 60.8682 44.1472 61.0877 44.4812C61.3072 44.8152 61.4169 45.1959 61.4169 45.6231C61.4169 46.33 61.1739 46.9048 60.688 47.3476C60.202 47.7826 59.4691 48.0001 58.4894 48.0001Z" fill="white"/>
<path d="M62.8321 47.7321C63.1456 47.6933 63.3729 47.6156 63.514 47.4991C63.6551 47.3748 63.7256 47.1845 63.7256 46.9281V40.3565C63.7256 40.1001 63.6551 39.9137 63.514 39.7972C63.3729 39.6729 63.1456 39.5913 62.8321 39.5525V39.401H66.03V39.5525C65.7087 39.5835 65.4735 39.6612 65.3246 39.7855C65.1757 39.9098 65.1012 40.1001 65.1012 40.3565V46.9281C65.1012 47.1845 65.1757 47.3748 65.3246 47.4991C65.4735 47.6234 65.7087 47.701 66.03 47.7321V47.8836H62.8321V47.7321Z" fill="white"/>
<path d="M67.4353 47.7321C67.7488 47.6933 67.9761 47.6117 68.1172 47.4874C68.2583 47.3554 68.3288 47.1534 68.3288 46.8815V40.4031C68.3288 40.1312 68.2583 39.9331 68.1172 39.8088C67.9761 39.6768 67.7488 39.5913 67.4353 39.5525V39.401H70.8213C71.6522 39.401 72.3576 39.5874 72.9376 39.9603C73.5255 40.3332 73.9644 40.8381 74.2544 41.475C74.5523 42.1042 74.7012 42.8072 74.7012 43.584C74.7012 44.4696 74.5405 45.2347 74.2191 45.8795C73.9056 46.5242 73.4471 47.0213 72.8436 47.3709C72.2479 47.7127 71.5346 47.8836 70.7038 47.8836H67.4353V47.7321ZM69.7044 46.9048C69.7044 47.1689 69.771 47.3631 69.9043 47.4874C70.0454 47.6039 70.2609 47.6622 70.5509 47.6622H70.6802C71.1976 47.6622 71.6443 47.503 72.0206 47.1845C72.4046 46.8582 72.6946 46.4038 72.8906 45.8212C73.0944 45.2386 73.1963 44.5628 73.1963 43.7938C73.1963 42.3955 72.969 41.3507 72.5144 40.6594C72.0598 39.9681 71.4405 39.6224 70.6567 39.6224H70.5509C70.2609 39.6224 70.0454 39.6845 69.9043 39.8088C69.771 39.9253 69.7044 40.1156 69.7044 40.3798V46.9048Z" fill="white"/>
<path d="M76.0226 47.7321C76.3283 47.6933 76.5477 47.6117 76.681 47.4874C76.8221 47.3554 76.8926 47.1534 76.8926 46.8815V40.4031C76.8926 40.1312 76.8221 39.9331 76.681 39.8088C76.5477 39.6768 76.3283 39.5913 76.0226 39.5525V39.401H81.8306L82.0422 41.5683H81.8659C81.7405 40.9002 81.4661 40.4108 81.0429 40.1001C80.6196 39.7816 80.0474 39.6224 79.3263 39.6224H79.1735C78.57 39.6224 78.2682 39.8826 78.2682 40.4031V42.9781H78.856C79.3185 42.9781 79.6634 42.9665 79.8907 42.9432C80.2356 42.9121 80.506 42.7878 80.7019 42.5703C80.8979 42.3528 81.0194 42.011 81.0664 41.5449H81.231V44.7143H81.0664C81.0115 44.1938 80.8861 43.8248 80.6902 43.6073C80.502 43.3821 80.2356 43.2578 79.8907 43.2345C79.6555 43.2189 79.3067 43.2112 78.8443 43.2112C78.7189 43.2034 78.5268 43.1995 78.2682 43.1995V46.8815C78.2682 47.1534 78.3387 47.3515 78.4798 47.4758C78.6287 47.6001 78.86 47.6622 79.1735 47.6622H79.5497C80.2787 47.6622 80.8548 47.4991 81.278 47.1728C81.7013 46.8388 81.9834 46.2912 82.1245 45.5299H82.3009L82.0893 47.8836H76.0226V47.7321Z" fill="white"/>
<path d="M83.5284 47.7321C83.8184 47.701 84.034 47.6001 84.175 47.4292C84.324 47.2505 84.4102 46.9553 84.4337 46.5436C84.4729 45.9144 84.4925 45.1027 84.4925 44.1084C84.4925 43.3859 84.4886 42.8422 84.4807 42.4771L84.469 40.7526V40.1817C84.469 40.0108 84.3906 39.871 84.2338 39.7622C84.0771 39.6535 83.8615 39.5835 83.5872 39.5525V39.401H85.7387L89.6891 45.1337L89.7009 43.2461C89.7009 42.0965 89.6891 41.3003 89.6656 40.8575C89.6421 40.4458 89.5285 40.1351 89.3247 39.9253C89.1209 39.7078 88.8113 39.5835 88.3959 39.5525V39.401H90.9472V39.5525C90.6493 39.5835 90.422 39.6845 90.2652 39.8554C90.1163 40.0263 90.0301 40.3021 90.0066 40.6827C89.9596 41.3741 89.936 42.2751 89.936 43.3859C89.936 44.2093 89.94 44.8308 89.9478 45.2503L89.9596 47.2311V47.8836H89.7597L84.7276 40.5079C84.7433 43.6695 84.7629 45.6775 84.7864 46.532C84.8021 47.2699 85.1901 47.67 85.9504 47.7321V47.8836H83.5284V47.7321Z" fill="white"/>
<path d="M95.972 48.0001C95.2745 48.0001 94.6474 47.8292 94.0909 47.4874C93.5422 47.1456 93.1111 46.6407 92.7976 45.9727C92.4841 45.3046 92.3273 44.5006 92.3273 43.5607C92.3273 42.6829 92.488 41.9217 92.8094 41.277C93.1386 40.6244 93.5853 40.1273 94.1497 39.7855C94.7219 39.4437 95.3685 39.2728 96.0896 39.2728C96.9675 39.2728 97.7199 39.4243 98.347 39.7273L98.4646 42.011H98.3C98.0335 41.1022 97.7121 40.4574 97.3359 40.0768C96.9596 39.6962 96.5011 39.5059 95.9603 39.5059C95.5292 39.5059 95.153 39.669 94.8316 39.9952C94.5102 40.3215 94.2633 40.7876 94.0909 41.3935C93.9185 41.9916 93.8322 42.6946 93.8322 43.5025C93.8322 44.3647 93.9381 45.0988 94.1497 45.7047C94.3613 46.3106 94.6592 46.7689 95.0432 47.0796C95.4351 47.3825 95.8897 47.534 96.4071 47.534C96.8382 47.534 97.234 47.4447 97.5945 47.266C97.9551 47.0874 98.296 46.7611 98.6174 46.2873L98.782 46.3921C98.4606 46.9437 98.0648 47.3515 97.5945 47.6156C97.1321 47.8719 96.5913 48.0001 95.972 48.0001Z" fill="white"/>
<path d="M99.9589 47.7321C100.265 47.6933 100.484 47.6117 100.617 47.4874C100.758 47.3554 100.829 47.1534 100.829 46.8815V40.4031C100.829 40.1312 100.758 39.9331 100.617 39.8088C100.484 39.6768 100.265 39.5913 99.9589 39.5525V39.401H105.767L105.979 41.5683H105.802C105.677 40.9002 105.402 40.4108 104.979 40.1001C104.556 39.7816 103.984 39.6224 103.263 39.6224H103.11C102.506 39.6224 102.205 39.8826 102.205 40.4031V42.9781H102.792C103.255 42.9781 103.6 42.9665 103.827 42.9432C104.172 42.9121 104.442 42.7878 104.638 42.5703C104.834 42.3528 104.956 42.011 105.003 41.5449H105.167V44.7143H105.003C104.948 44.1938 104.822 43.8248 104.626 43.6073C104.438 43.3821 104.172 43.2578 103.827 43.2345C103.592 43.2189 103.243 43.2112 102.781 43.2112C102.655 43.2034 102.463 43.1995 102.205 43.1995V46.8815C102.205 47.1534 102.275 47.3515 102.416 47.4758C102.565 47.6001 102.796 47.6622 103.11 47.6622H103.486C104.215 47.6622 104.791 47.4991 105.214 47.1728C105.638 46.8388 105.92 46.2912 106.061 45.5299H106.237L106.026 47.8836H99.9589V47.7321Z" fill="white"/>
<path d="M110.345 48.0001C109.82 48.0001 109.291 47.9418 108.758 47.8253C108.233 47.701 107.872 47.5573 107.676 47.3942L107.559 45.0638H107.723C107.99 45.9338 108.374 46.6019 108.876 47.0679C109.377 47.5263 109.93 47.7554 110.533 47.7554C111.027 47.7554 111.403 47.6234 111.662 47.3592C111.929 47.0874 112.062 46.7184 112.062 46.2523C112.062 45.9105 111.964 45.5998 111.768 45.3202C111.58 45.0328 111.345 44.7842 111.062 44.5744C110.78 44.3647 110.4 44.1122 109.922 43.8171C109.444 43.5297 109.06 43.2772 108.77 43.0597C108.48 42.8422 108.237 42.5897 108.041 42.3023C107.845 42.0149 107.747 41.6964 107.747 41.3469C107.747 40.9507 107.849 40.5973 108.053 40.2865C108.264 39.9681 108.562 39.7195 108.946 39.5408C109.338 39.3622 109.793 39.2728 110.31 39.2728C110.788 39.2728 111.235 39.3272 111.65 39.436C112.074 39.5447 112.399 39.6884 112.626 39.8671L112.744 41.7663H112.579C112.297 41.0051 111.948 40.438 111.533 40.0652C111.125 39.6923 110.686 39.5059 110.216 39.5059C109.887 39.5059 109.608 39.6302 109.381 39.8787C109.162 40.1273 109.052 40.4264 109.052 40.7759C109.052 41.0478 109.134 41.2964 109.299 41.5216C109.463 41.7469 109.671 41.9528 109.922 42.1392C110.173 42.3179 110.506 42.5354 110.921 42.7917C111.431 43.1102 111.838 43.3898 112.144 43.6306C112.458 43.8637 112.724 44.1472 112.944 44.4812C113.163 44.8152 113.273 45.1959 113.273 45.6231C113.273 46.33 113.03 46.9048 112.544 47.3476C112.058 47.7826 111.325 48.0001 110.345 48.0001Z" fill="white"/>
</g>
<defs>
<clipPath id="clip0_9_1018">
<rect width="113.273" height="48" fill="white"/>
</clipPath>
</defs>
</svg>
