<svg width="22" height="28" viewBox="0 0 22 28" fill="none" xmlns="http://www.w3.org/2000/svg">
<path d="M13.3003 0.666656C13.298 0.779676 13.2935 0.891942 13.2935 1.00496C13.2935 2.98205 13.295 4.95914 13.2905 6.93623C13.2905 7.12234 13.369 7.2429 13.5147 7.33632C13.5291 7.34612 13.5495 7.35516 13.5555 7.36872C13.6605 7.6234 13.8991 7.7432 14.0893 7.91499C14.26 8.06945 14.3846 8.27288 14.5499 8.43488C14.673 8.55468 14.7319 8.74756 14.9425 8.77695C15.0173 8.7875 15.046 8.88922 15.1041 8.94196C15.2582 9.0821 15.4265 9.23129 15.5337 9.39856C15.6289 9.54774 15.7655 9.65021 15.8539 9.79187C15.9392 9.92975 16.1015 9.94934 16.2012 10.0729C16.3545 10.2635 16.5538 10.3954 16.5523 10.6915C16.5417 12.7063 16.5523 14.721 16.538 16.7358C16.5372 16.8872 16.4693 17.059 16.3137 17.1834C16.2005 17.2738 16.0683 17.3853 16.0117 17.5186C15.9679 17.6226 15.875 17.6 15.8184 17.6671C15.7074 17.7974 15.6349 17.9768 15.4499 18.0385C15.4061 18.0529 15.4129 18.0996 15.4212 18.1365C15.4341 18.1945 15.4832 18.1915 15.5262 18.1922C15.7527 18.193 15.9792 18.1907 16.2057 18.1937C16.4285 18.196 16.5531 18.2179 16.547 18.5049C16.5327 19.1951 16.5463 19.8853 16.547 20.5762C16.5478 22.4908 16.5478 24.4053 16.5485 26.3191C16.5485 26.5821 16.55 26.5828 16.8128 26.5821C18.3093 26.5821 19.8066 26.5806 21.3031 26.5798V27.2956C20.0701 27.2933 18.8378 27.2918 17.6049 27.2903C16.9004 27.2896 16.1959 27.2835 15.4915 27.2948C15.3103 27.2979 15.2687 27.2323 15.2725 27.0711C15.2801 26.7011 15.2748 26.3304 15.2748 25.9597C15.2748 23.4929 15.2748 21.026 15.2748 18.5592C15.2748 18.3226 15.1645 18.2156 14.9206 18.2148C14.5809 18.2141 14.2411 18.2164 13.9021 18.2133C13.8145 18.2126 13.7269 18.2013 13.6401 18.1877C13.5472 18.1727 13.5397 18.0943 13.594 18.0536C13.8349 17.8743 14.0259 17.6415 14.2449 17.4403C14.4601 17.2429 14.6398 16.995 14.8587 16.7946C14.9833 16.6808 15.083 16.5414 15.2189 16.4427C15.2944 16.3884 15.268 16.3176 15.2687 16.2566C15.274 15.8045 15.2717 15.3524 15.2717 14.9011C15.2717 13.401 15.2695 11.9008 15.274 10.4007C15.274 10.1904 15.2242 10.0443 15.0407 9.90489C14.8421 9.75344 14.6934 9.53343 14.5356 9.33376C14.4435 9.21697 14.2902 9.1793 14.2094 9.05799C14.1437 8.95929 14.0214 8.91785 13.9821 8.78825C13.9413 8.65564 13.8168 8.56522 13.7028 8.50495C13.5804 8.4409 13.5057 8.3422 13.4189 8.25028C13.3962 8.22617 13.3819 8.20206 13.3471 8.20733C13.3086 8.21336 13.2996 8.2435 13.298 8.27589C13.2958 8.34521 13.2943 8.41378 13.2943 8.4831C13.2943 10.0714 13.2897 11.6597 13.298 13.2473C13.2996 13.4974 13.2716 13.7611 13.1176 13.9261C12.9809 14.0715 12.885 14.3029 12.6419 14.3375C12.6155 14.3413 12.5913 14.3526 12.5891 14.3812C12.5664 14.6088 12.3006 14.654 12.2342 14.8514C12.2251 14.877 12.1481 14.883 12.1685 14.9418C12.1904 15.0051 12.2523 14.987 12.2991 14.9878C12.5634 14.9908 12.8284 15.0006 13.0912 14.9863C13.2641 14.9765 13.298 15.0382 13.298 15.1995C13.2935 19.1288 13.295 23.0581 13.2943 26.9882C13.2943 27.05 13.2829 27.1118 13.2769 27.1735C13.2633 27.3159 13.1697 27.3559 13.0519 27.322C12.9205 27.2835 12.7907 27.2933 12.66 27.2933C8.73528 27.2933 4.81053 27.2933 0.885784 27.2933C0.823115 27.2933 0.760446 27.2964 0.697021 27.2979V26.5821C2.26224 26.5821 3.82821 26.5813 5.39343 26.5866C5.53236 26.5866 5.58295 26.5504 5.57766 26.4095C5.5686 26.1842 5.57615 25.9582 5.57615 25.7322C5.57615 22.099 5.57766 18.4665 5.57238 14.8333C5.57238 14.6314 5.66902 14.5251 5.81173 14.4091C5.92725 14.3149 6.02843 14.1883 6.1145 14.0693C6.17189 13.9902 6.25343 13.9246 6.31308 13.8779C6.46334 13.7619 6.5547 13.5938 6.70193 13.4876C6.85219 13.3784 6.92467 13.1915 7.10739 13.1162C7.1761 13.0875 7.17308 12.9873 7.23802 12.9278C7.38148 12.7967 7.51286 12.649 7.66991 12.5322C7.75145 12.4719 7.69256 12.3567 7.79977 12.3024C8.03762 12.1819 8.20071 11.9618 8.40079 11.7916C8.54727 11.6672 8.65751 11.4947 8.81305 11.3689C8.87799 11.3161 8.84476 11.2265 8.84476 11.1534C8.84778 9.32095 8.84854 7.48928 8.85005 5.65685C8.85005 5.55664 8.86213 5.45417 8.84778 5.35622C8.81456 5.12114 8.92404 4.97873 9.10375 4.83784C9.28496 4.69543 9.43748 4.5146 9.58698 4.33377C9.64663 4.26144 9.71005 4.13937 9.84294 4.11828C9.889 4.11074 9.96375 4.04218 9.95997 4.00827C9.94261 3.85306 10.0876 3.81312 10.1593 3.74908C10.3111 3.61346 10.4568 3.48235 10.5617 3.30378C10.5942 3.24878 10.678 3.21487 10.7362 3.16891C10.8925 3.04685 11.0004 2.87883 11.1522 2.76053C11.2896 2.65354 11.3712 2.50134 11.5086 2.39586C11.6249 2.3062 11.726 2.19167 11.8166 2.07488C11.9367 1.91891 12.1217 1.82473 12.2297 1.67253C12.3678 1.47738 12.6313 1.40807 12.7091 1.15641C12.731 1.08558 12.8692 1.0999 12.9092 1.00873C12.9658 0.879133 13.138 0.829405 13.1508 0.668163C13.2014 0.668163 13.2512 0.668163 13.3018 0.668163L13.3003 0.666656ZM11.9926 20.76C11.9926 18.9148 11.9903 17.0703 11.9963 15.2251C11.9963 15.0571 11.9586 14.9953 11.7789 15.0013C11.3206 15.0171 10.8615 15.0126 10.4024 15.0149C10.3556 15.0149 10.2945 15.0315 10.2824 14.9584C10.2718 14.8981 10.3111 14.8838 10.3586 14.8529C10.4372 14.8024 10.4945 14.7195 10.5648 14.654C10.6886 14.5379 10.78 14.3872 10.9053 14.2742C11.0661 14.1296 11.2571 14.0128 11.3296 13.7965C11.3704 13.676 11.4995 13.7302 11.5539 13.6586C11.6422 13.5396 11.7411 13.4386 11.868 13.3558C11.9609 13.2955 12.0228 13.2013 12.0137 13.0702C11.9986 12.8577 11.9948 12.6445 11.9948 12.4313C11.9941 9.34355 11.9941 6.25586 11.9948 3.16816C11.9948 3.09281 12.0009 3.01747 12.0024 2.94287C12.0039 2.84417 11.8944 2.83437 11.8808 2.86753C11.8363 2.97603 11.6634 2.98431 11.6943 3.16062C11.7253 3.33769 11.4391 3.18473 11.4255 3.36105C11.424 3.37838 11.415 3.39947 11.4029 3.41077C11.35 3.45749 11.3311 3.54112 11.2337 3.54037C11.1839 3.54037 11.1492 3.59311 11.1107 3.63455C10.9574 3.79806 10.8766 4.00902 10.7241 4.17479C10.6169 4.29082 10.4447 4.25767 10.3511 4.42418C10.2484 4.60577 10.0038 4.71351 10.1329 4.98401C10.1404 4.99908 10.1336 5.02093 10.1336 5.03976C10.1336 9.57713 10.1329 14.1137 10.1374 18.6511C10.1374 18.8372 10.0808 18.9721 9.94336 19.0881C9.70401 19.2908 9.46164 19.4912 9.28269 19.7564C9.23437 19.828 9.1717 19.9026 9.0675 19.9275C8.95878 19.9531 9.00106 20.0631 8.99426 20.1339C8.98445 20.2304 9.07354 20.21 9.13168 20.2108C9.29477 20.2138 9.45862 20.2123 9.62246 20.2123C9.96375 20.2123 10.1344 20.3821 10.1344 20.7216C10.1344 22.5977 10.1382 24.4746 10.1299 26.3508C10.1291 26.5474 10.1872 26.5911 10.3722 26.5851C10.7996 26.5715 11.2269 26.5806 11.6551 26.5806C11.8821 26.5806 11.9956 26.4663 11.9956 26.2377C11.9956 24.4113 11.9956 22.5857 11.9956 20.7593L11.9926 20.76ZM6.87408 20.421C6.87408 20.8098 6.87408 21.1993 6.87408 21.5881C6.87408 23.1764 6.8771 24.764 6.87106 26.3523C6.87106 26.5293 6.91561 26.5896 7.10135 26.5858C7.62913 26.5738 8.15767 26.5791 8.6862 26.5821C8.80173 26.5821 8.85156 26.5534 8.85156 26.4246C8.84778 24.4098 8.84854 22.3951 8.85156 20.3803C8.85156 20.2462 8.80399 20.21 8.6779 20.2115C8.21883 20.2168 7.75976 20.2138 7.30069 20.2123C7.22518 20.2123 7.14968 20.2078 7.07493 20.198C7.0032 20.1889 6.9881 20.1196 7.03717 20.0962C7.18969 20.0232 7.24934 19.8476 7.42603 19.7934C7.64725 19.7255 7.68425 19.4671 7.83979 19.3157C8.13049 19.0324 8.38796 18.7129 8.69602 18.4454C8.82966 18.3294 8.85307 18.202 8.85231 18.0363C8.84627 16.2475 8.84854 14.4588 8.84854 12.6701C8.84854 12.6076 8.8508 12.5443 8.84401 12.4817C8.83419 12.3936 8.78436 12.3891 8.73226 12.4471C8.62655 12.5654 8.50122 12.6648 8.39249 12.7794C8.31925 12.8562 8.25507 13.0159 8.08669 12.9911C8.01421 12.9805 8.01345 13.0574 8.0127 13.0996C8.01119 13.2412 7.88887 13.3226 7.81412 13.3874C7.61101 13.563 7.45698 13.795 7.22669 13.9306C7.13533 13.9841 7.16251 14.0813 7.08474 14.1288C6.94808 14.2132 6.87106 14.3307 6.87106 14.5078C6.87559 16.4789 6.87408 18.4499 6.87408 20.421Z" fill="#AD7C4A"/>
</svg>
