<svg width="114" height="48" viewBox="0 0 114 48" fill="none" xmlns="http://www.w3.org/2000/svg">
<g clip-path="url(#clip0_541_8105)">
<path d="M22.6859 0C22.6818 0.203435 22.6737 0.405515 22.6737 0.60895C22.6737 4.16771 22.6764 7.72648 22.6682 11.2852C22.6682 11.6202 22.8096 11.8372 23.0719 12.0054C23.0977 12.023 23.1344 12.0393 23.1453 12.0637C23.3342 12.5221 23.7637 12.7378 24.1062 13.047C24.4133 13.325 24.6376 13.6912 24.9352 13.9828C25.1567 14.1984 25.2628 14.5456 25.6419 14.5985C25.7765 14.6175 25.8281 14.8006 25.9328 14.8955C26.21 15.1478 26.5131 15.4163 26.7061 15.7174C26.8773 15.986 27.1233 16.1704 27.2824 16.4254C27.4359 16.6736 27.7281 16.7088 27.9075 16.9313C28.1834 17.2744 28.5422 17.5117 28.5395 18.0447C28.5205 21.6713 28.5395 25.2979 28.5137 28.9244C28.5123 29.1971 28.39 29.5063 28.11 29.7301C27.9062 29.8928 27.6683 30.0935 27.5664 30.3336C27.4876 30.5207 27.3204 30.4801 27.2185 30.6008C27.0187 30.8354 26.8882 31.1582 26.5552 31.2694C26.4764 31.2951 26.4886 31.3792 26.5036 31.4457C26.5267 31.5501 26.615 31.5447 26.6925 31.5461C27.1002 31.5474 27.508 31.5433 27.9157 31.5488C28.3166 31.5528 28.5409 31.5922 28.53 32.1089C28.5042 33.3512 28.5286 34.5935 28.53 35.8372C28.5314 39.2834 28.5314 42.7296 28.5327 46.1744C28.5327 46.6477 28.5354 46.6491 29.0084 46.6477C31.7021 46.6477 34.3972 46.645 37.0909 46.6437V47.9321C34.8715 47.928 32.6535 47.9253 30.4341 47.9226C29.1661 47.9212 27.898 47.9104 26.63 47.9307C26.3038 47.9362 26.2291 47.8182 26.2359 47.5279C26.2495 46.862 26.2399 46.1948 26.2399 45.5275C26.2399 41.0872 26.2399 36.6469 26.2399 32.2065C26.2399 31.7807 26.0415 31.5881 25.6025 31.5867C24.9909 31.5854 24.3793 31.5895 23.7691 31.584C23.6115 31.5827 23.4538 31.5623 23.2975 31.5379C23.1303 31.5108 23.1168 31.3697 23.2146 31.2965C23.6482 30.9737 23.992 30.5546 24.3861 30.1925C24.7735 29.8372 25.0969 29.391 25.4911 29.0302C25.7153 28.8254 25.8947 28.5745 26.1394 28.3969C26.2753 28.2992 26.2277 28.1717 26.2291 28.0619C26.2386 27.2481 26.2345 26.4344 26.2345 25.622C26.2345 22.9217 26.2304 20.2215 26.2386 17.5212C26.2386 17.1428 26.1489 16.8797 25.8186 16.6288C25.4612 16.3562 25.1934 15.9602 24.9094 15.6008C24.7436 15.3906 24.4677 15.3228 24.3223 15.1044C24.204 14.9267 23.9838 14.8521 23.9132 14.6189C23.8398 14.3802 23.6155 14.2174 23.4103 14.1089C23.1901 13.9936 23.0556 13.816 22.8993 13.6505C22.8585 13.6071 22.8327 13.5637 22.7702 13.5732C22.7009 13.5841 22.6846 13.6383 22.6818 13.6966C22.6778 13.8214 22.675 13.9448 22.675 14.0696C22.675 16.9285 22.6669 19.7875 22.6818 22.6451C22.6846 23.0953 22.6343 23.57 22.357 23.867C22.111 24.1288 21.9384 24.5452 21.5008 24.6075C21.4532 24.6143 21.4097 24.6347 21.4057 24.6862C21.3649 25.0958 20.8865 25.1772 20.7669 25.5325C20.7506 25.5786 20.6119 25.5895 20.6486 25.6953C20.6881 25.8092 20.7995 25.7766 20.8838 25.778C21.3594 25.7834 21.8365 25.801 22.3095 25.7753C22.6207 25.7576 22.6818 25.8688 22.6818 26.1591C22.6737 33.2319 22.6764 40.3046 22.675 47.3788C22.675 47.49 22.6547 47.6012 22.6438 47.7124C22.6193 47.9687 22.4508 48.0406 22.2388 47.9796C22.0023 47.9104 21.7685 47.928 21.5334 47.928C14.4689 47.928 7.40432 47.928 0.339772 47.928C0.226968 47.928 0.114163 47.9335 0 47.9362V46.6477C2.81739 46.6477 5.63614 46.6464 8.45354 46.6559C8.70361 46.6559 8.79467 46.5908 8.78515 46.3372C8.76884 45.9317 8.78244 45.5248 8.78244 45.1179C8.78244 38.5781 8.78515 32.0397 8.77564 25.5C8.77564 25.1365 8.9496 24.9453 9.20647 24.7364C9.41441 24.5669 9.59653 24.339 9.75147 24.1247C9.85476 23.9823 10.0015 23.8643 10.1089 23.7802C10.3794 23.5714 10.5438 23.2689 10.8088 23.0777C11.0793 22.8811 11.2098 22.5447 11.5387 22.4091C11.6623 22.3576 11.6569 22.1772 11.7738 22.07C12.032 21.834 12.2685 21.5682 12.5512 21.358C12.698 21.2495 12.592 21.042 12.785 20.9444C13.2131 20.7274 13.5066 20.3313 13.8668 20.0248C14.1305 19.8011 14.3289 19.4905 14.6089 19.264C14.7257 19.169 14.6659 19.0077 14.6659 18.8761C14.6714 15.5777 14.6727 12.2807 14.6754 8.98235C14.6754 8.80197 14.6972 8.61752 14.6714 8.44121C14.6116 8.01807 14.8086 7.76174 15.1321 7.50812C15.4583 7.25179 15.7328 6.9263 16.0019 6.6008C16.1093 6.4706 16.2234 6.25089 16.4626 6.21292C16.5456 6.19936 16.6801 6.07594 16.6733 6.01491C16.642 5.73552 16.903 5.66364 17.0321 5.54836C17.3053 5.30424 17.5676 5.06825 17.7565 4.74683C17.8149 4.64782 17.9658 4.58679 18.0704 4.50406C18.3518 4.28435 18.5461 3.98191 18.8193 3.76898C19.0667 3.5764 19.2134 3.30244 19.4608 3.11256C19.6701 2.95117 19.8522 2.74502 20.0153 2.53481C20.2314 2.25406 20.5644 2.08453 20.7587 1.81058C21.0074 1.45931 21.4818 1.33454 21.6218 0.881554C21.6612 0.754067 21.9099 0.779836 21.9819 0.615731C22.0838 0.382459 22.3937 0.292947 22.4168 0.00271247C22.5079 0.00271247 22.5976 0.00271247 22.6886 0.00271247L22.6859 0ZM20.332 36.1681C20.332 32.8467 20.3279 29.5266 20.3388 26.2052C20.3388 25.9028 20.2708 25.7915 19.9474 25.8024C19.1224 25.8309 18.2961 25.8227 17.4697 25.8268C17.3855 25.8268 17.2754 25.8566 17.2536 25.7251C17.2346 25.6166 17.3053 25.5908 17.3909 25.5352C17.5323 25.4443 17.6355 25.2952 17.7619 25.1772C17.9848 24.9683 18.1493 24.6971 18.3749 24.4936C18.6644 24.2332 19.0082 24.023 19.1387 23.6338C19.2121 23.4168 19.4445 23.5144 19.5423 23.3856C19.7014 23.1713 19.8794 22.9896 20.1077 22.8404C20.2749 22.7319 20.3863 22.5623 20.37 22.3264C20.3428 21.9439 20.3361 21.5601 20.3361 21.1763C20.3347 15.6184 20.3347 10.0606 20.3361 4.5027C20.3361 4.36708 20.3469 4.23146 20.3496 4.09719C20.3524 3.91952 20.1553 3.90189 20.1308 3.96157C20.0506 4.15686 19.7394 4.17178 19.7951 4.48914C19.8509 4.80786 19.3358 4.53254 19.3113 4.8499C19.3086 4.88109 19.2923 4.91907 19.2705 4.93941C19.1754 5.0235 19.1414 5.17404 18.9661 5.17268C18.8764 5.17268 18.8139 5.26762 18.7446 5.34221C18.4687 5.63652 18.3232 6.01626 18.0487 6.31464C17.8557 6.5235 17.5458 6.46382 17.3773 6.76355C17.1925 7.0904 16.7521 7.28434 16.9845 7.77123C16.9981 7.79836 16.9859 7.83769 16.9859 7.87159C16.9859 16.0388 16.9845 24.2047 16.9927 32.372C16.9927 32.707 16.8908 32.9498 16.6434 33.1586C16.2126 33.5234 15.7763 33.8842 15.4542 34.3616C15.3672 34.4904 15.2544 34.6247 15.0669 34.6695C14.8712 34.7156 14.9473 34.9136 14.935 35.0411C14.9174 35.2147 15.0777 35.1781 15.1824 35.1794C15.476 35.1848 15.7709 35.1821 16.0658 35.1821C16.6801 35.1821 16.9873 35.4877 16.9873 36.0989C16.9873 39.476 16.9941 42.8544 16.9791 46.2314C16.9777 46.5854 17.0824 46.664 17.4154 46.6532C18.1846 46.6288 18.9539 46.645 19.7245 46.645C20.1331 46.645 20.3374 46.4393 20.3374 46.0279C20.3374 42.7404 20.3374 39.4543 20.3374 36.1668L20.332 36.1681ZM11.1187 35.5578C11.1187 36.2576 11.1187 36.9588 11.1187 37.6586C11.1187 40.5176 11.1241 43.3751 11.1133 46.2341C11.1133 46.5528 11.1935 46.6613 11.5278 46.6545C12.4778 46.6328 13.4292 46.6423 14.3805 46.6477C14.5885 46.6477 14.6782 46.5962 14.6782 46.3643C14.6714 42.7377 14.6727 39.1111 14.6782 35.4846C14.6782 35.2432 14.5925 35.1781 14.3656 35.1808C13.5392 35.1903 12.7129 35.1848 11.8866 35.1821C11.7507 35.1821 11.6148 35.174 11.4802 35.1564C11.3511 35.1401 11.3239 35.0153 11.4123 34.9733C11.6868 34.8417 11.7942 34.5257 12.1122 34.4281C12.5104 34.306 12.577 33.8408 12.857 33.5682C13.3802 33.0583 13.8437 32.4832 14.3982 32.0018C14.6388 31.7929 14.6809 31.5637 14.6795 31.2653C14.6687 28.0456 14.6727 24.8259 14.6727 21.6062C14.6727 21.4936 14.6768 21.3797 14.6646 21.2671C14.6469 21.1085 14.5572 21.1003 14.4634 21.2048C14.2732 21.4177 14.0475 21.5967 13.8518 21.8029C13.72 21.9412 13.6045 22.2287 13.3014 22.184C13.1709 22.165 13.1696 22.3033 13.1682 22.3793C13.1655 22.6342 12.9453 22.7807 12.8108 22.8973C12.4452 23.2133 12.1679 23.6311 11.7534 23.8752C11.589 23.9715 11.6379 24.1464 11.4979 24.2319C11.2519 24.3838 11.1133 24.5953 11.1133 24.9141C11.1214 28.462 11.1187 32.0085 11.1187 35.5564V35.5578Z" fill="#B3804C"/>
<path d="M39.0908 21.1482C39.8584 21.0511 40.4149 20.8472 40.7603 20.5365C41.1057 20.2063 41.2784 19.7014 41.2784 19.0217V2.82559C41.2784 2.14589 41.1057 1.65069 40.7603 1.33997C40.4149 1.00983 39.8584 0.796213 39.0908 0.699114V0.320427H47.6108C49.5489 0.320427 51.1224 0.747663 52.3313 1.60214C53.5402 2.45661 54.1447 3.63151 54.1447 5.12684C54.1447 6.15609 53.7801 7.09795 53.0509 7.95242C52.3217 8.80689 51.2279 9.3992 49.7696 9.72934C51.7269 10.0401 53.1756 10.6809 54.1159 11.6519C55.0562 12.6229 55.5263 13.8658 55.5263 15.3805C55.5263 17.3225 54.8163 18.8372 53.3963 19.9247C51.9955 20.9928 49.8943 21.5269 47.0927 21.5269H39.0908V21.1482ZM44.6461 19.08C44.6461 19.7403 44.8188 20.2258 45.1642 20.5365C45.5096 20.8278 46.0565 20.9734 46.8048 20.9734H47.4957C48.8197 20.9734 49.8751 20.4879 50.6619 19.5169C51.4678 18.5459 51.8708 17.1963 51.8708 15.4679C51.8708 13.6424 51.3814 12.2928 50.4028 11.4189C49.4433 10.5255 47.985 10.0789 46.0277 10.0789H44.6461V19.08ZM47.0927 9.46717C48.2632 9.46717 49.1171 9.12732 49.6544 8.44763C50.2109 7.74851 50.4892 6.72897 50.4892 5.389C50.4892 4.41801 50.3165 3.59267 49.971 2.91297C49.6448 2.23328 49.2131 1.72836 48.6758 1.39823C48.1577 1.04867 47.6204 0.873892 47.0639 0.873892H46.6897C45.9989 0.873892 45.4808 1.02925 45.1354 1.33997C44.8092 1.63127 44.6461 2.10705 44.6461 2.76733V9.46717H47.0927Z" fill="white"/>
<path d="M59.1438 21.1482C59.8922 21.0511 60.4295 20.8472 60.7557 20.5365C61.1011 20.2063 61.2738 19.7014 61.2738 19.0217V2.82559C61.2738 2.14589 61.1011 1.65069 60.7557 1.33997C60.4295 1.00983 59.8922 0.796213 59.1438 0.699114V0.320427H73.3629L73.8811 5.73856H73.4493C73.1423 4.06845 72.4707 2.84501 71.4344 2.06821C70.3982 1.272 68.9974 0.873892 67.232 0.873892H66.8578C65.3803 0.873892 64.6415 1.52446 64.6415 2.82559V9.26326H66.0807C67.2128 9.26326 68.0572 9.23413 68.6136 9.17587C69.458 9.09819 70.12 8.78747 70.5997 8.24372C71.0794 7.69996 71.3769 6.84549 71.492 5.6803H71.895V13.6036H71.492C71.3577 12.3025 71.0507 11.38 70.5709 10.8363C70.1104 10.2731 69.458 9.96237 68.6136 9.90411C68.038 9.86527 67.1841 9.84585 66.0519 9.84585C65.7449 9.82644 65.2747 9.81673 64.6415 9.81673V19.0217C64.6415 19.7014 64.8142 20.1966 65.1596 20.5073C65.5242 20.8181 66.0903 20.9734 66.8578 20.9734H67.7789C69.5635 20.9734 70.9739 20.5656 72.0101 19.75C73.0463 18.9149 73.7371 17.5458 74.0825 15.6427H74.5143L73.9962 21.5269H59.1438V21.1482Z" fill="white"/>
<path d="M85.1472 21.8182C83.8615 21.8182 82.5662 21.6725 81.2614 21.3812C79.9757 21.0705 79.093 20.7113 78.6133 20.3034L78.3254 14.4775H78.7284C79.3808 16.6525 80.3211 18.3226 81.5492 19.4878C82.7773 20.6336 84.1301 21.2065 85.6077 21.2065C86.8166 21.2065 87.7377 20.8763 88.3709 20.216C89.0234 19.5364 89.3496 18.6139 89.3496 17.4487C89.3496 16.5942 89.1097 15.8175 88.63 15.1183C88.1694 14.3998 87.5938 13.7784 86.903 13.254C86.2122 12.7297 85.2815 12.0986 84.111 11.3606C82.9404 10.6421 82.0002 10.0109 81.2902 9.46717C80.5802 8.92341 79.9853 8.29227 79.5056 7.57373C79.0258 6.8552 78.786 6.05899 78.786 5.18509C78.786 4.19468 79.0354 3.31108 79.5343 2.53429C80.0525 1.73808 80.7816 1.11664 81.7219 0.669984C82.6814 0.223328 83.7943 0 85.0608 0C86.2314 0 87.3251 0.135939 88.3422 0.407816C89.3784 0.679694 90.1747 1.03896 90.7312 1.48562L91.019 6.23377H90.6161C89.9253 4.33062 89.0713 2.91297 88.0543 1.98082C87.0565 1.04867 85.9819 0.582594 84.8305 0.582594C84.0246 0.582594 83.3434 0.893312 82.7869 1.51475C82.2496 2.13618 81.981 2.88385 81.981 3.75774C81.981 4.43743 82.1824 5.05887 82.5854 5.62204C82.9884 6.18522 83.4969 6.69984 84.111 7.16592C84.725 7.61257 85.5405 8.15633 86.5576 8.79718C87.8049 9.5934 88.8027 10.2925 89.5511 10.8945C90.3186 11.4771 90.9711 12.1859 91.5084 13.021C92.0457 13.8561 92.3143 14.8076 92.3143 15.8757C92.3143 17.6429 91.7194 19.08 90.5297 20.1869C89.34 21.2744 87.5458 21.8182 85.1472 21.8182Z" fill="white"/>
<path d="M96.8372 0.320427H112.639L113.273 6.08812H112.87C112.428 4.34033 111.699 3.02949 110.682 2.1556C109.684 1.26229 108.418 0.815633 106.883 0.815633H106.422V19.1382C106.422 19.7791 106.604 20.2549 106.969 20.5656C107.334 20.8763 107.909 21.0705 108.696 21.1482V21.5269H100.867V21.1482C101.634 21.0511 102.191 20.8569 102.536 20.5656C102.882 20.2549 103.054 19.7791 103.054 19.1382V0.815633H102.594C101.078 0.815633 99.8115 1.26229 98.7944 2.1556C97.7774 3.04891 97.0482 4.35975 96.6069 6.08812H96.2039L96.8372 0.320427Z" fill="white"/>
<path d="M39.0908 35.7032C39.4903 35.6537 39.78 35.5498 39.9598 35.3915C40.1395 35.2233 40.2294 34.966 40.2294 34.6197V26.3674C40.2294 26.0211 40.1395 25.7687 39.9598 25.6104C39.78 25.4422 39.4903 25.3334 39.0908 25.2839V25.0909H43.5254C44.5341 25.0909 45.3531 25.3086 45.9824 25.744C46.6116 26.1794 46.9262 26.778 46.9262 27.5399C46.9262 28.0643 46.7364 28.5443 46.3569 28.9796C45.9774 29.415 45.4081 29.7168 44.649 29.885C45.6678 30.0433 46.4218 30.3699 46.9112 30.8646C47.4006 31.3593 47.6453 31.9926 47.6453 32.7644C47.6453 33.7539 47.2758 34.5257 46.5367 35.0798C45.8076 35.624 44.7139 35.8961 43.2557 35.8961H39.0908V35.7032ZM41.9823 34.6494C41.9823 34.9858 42.0722 35.2332 42.2519 35.3915C42.4317 35.5399 42.7164 35.6141 43.1059 35.6141H43.4655C44.1546 35.6141 44.7039 35.3668 45.1134 34.872C45.5329 34.3773 45.7427 33.6896 45.7427 32.8089C45.7427 31.8788 45.488 31.1911 44.9786 30.7459C44.4792 30.2907 43.7201 30.0631 42.7014 30.0631H41.9823V34.6494ZM43.2557 29.7514C43.865 29.7514 44.3094 29.5783 44.5891 29.2319C44.8787 28.8757 45.0235 28.3562 45.0235 27.6735C45.0235 27.1788 44.9337 26.7582 44.7539 26.4119C44.5841 26.0656 44.3594 25.8083 44.0797 25.6401C43.81 25.462 43.5304 25.3729 43.2407 25.3729H43.046C42.6864 25.3729 42.4167 25.4521 42.237 25.6104C42.0672 25.7588 41.9823 26.0013 41.9823 26.3377V29.7514H43.2557Z" fill="white"/>
<path d="M49.2286 35.7032C49.6281 35.6537 49.9177 35.5498 50.0975 35.3915C50.2773 35.2332 50.3672 34.9809 50.3672 34.6345V26.3674C50.3672 26.0211 50.2773 25.7687 50.0975 25.6104C49.9177 25.4422 49.6281 25.3334 49.2286 25.2839V25.0909H54.0227C55.0914 25.0909 55.9404 25.3284 56.5696 25.8034C57.1988 26.2783 57.5134 26.9165 57.5134 27.718C57.5134 28.3414 57.2587 28.8757 56.7494 29.321C56.24 29.7663 55.5758 30.0681 54.7568 30.2264L57.2587 34.3377C57.5384 34.8028 57.8131 35.1342 58.0827 35.3321C58.3524 35.53 58.692 35.6488 59.1015 35.6883V35.8961C58.672 35.9654 58.2525 36 57.843 36C57.2038 36 56.6695 35.8862 56.24 35.6587C55.8205 35.4212 55.461 35.0402 55.1613 34.5158L53.3485 31.3099C52.999 30.6964 52.6544 30.3896 52.3148 30.3896H52.12V34.6345C52.12 34.9908 52.2249 35.248 52.4347 35.4063C52.6444 35.5647 53.009 35.6636 53.5283 35.7032V35.8961H49.2286V35.7032ZM52.3298 30.0928C53.1388 30.0928 53.783 30.0136 54.2624 29.8553C54.7418 29.697 55.0864 29.4546 55.2962 29.128C55.5059 28.8015 55.6108 28.3661 55.6108 27.8219C55.6108 27.06 55.426 26.4614 55.0564 26.026C54.6969 25.5906 54.2325 25.3729 53.6632 25.3729H53.1987C52.8392 25.3729 52.5695 25.4521 52.3897 25.6104C52.2099 25.7588 52.12 26.0112 52.12 26.3674V30.0928H52.3298Z" fill="white"/>
<path d="M60.5326 35.7032C60.8822 35.6636 61.1918 35.5399 61.4614 35.3321C61.7411 35.1144 61.9858 34.7533 62.1955 34.2486C62.645 33.1404 63.3142 31.3049 64.2031 28.7421C64.7924 27.0897 65.2268 25.8726 65.5065 25.0909H65.7462L69.147 34.3525C69.3068 34.8077 69.5116 35.1392 69.7613 35.347C70.021 35.5548 70.3256 35.6735 70.6752 35.7032V35.8961H65.7013V35.7032C66.2706 35.6636 66.6751 35.5844 66.9148 35.4657C67.1545 35.347 67.2743 35.1639 67.2743 34.9165C67.2743 34.7681 67.2394 34.595 67.1695 34.3971L66.705 33.0019H63.0495L62.6899 34.1893C62.62 34.4267 62.5851 34.6395 62.5851 34.8275C62.5851 35.1045 62.6849 35.3123 62.8847 35.4509C63.0944 35.5795 63.439 35.6636 63.9184 35.7032V35.8961H60.5326V35.7032ZM66.6002 32.6902L64.9072 27.7032C64.1781 29.6525 63.5938 31.3148 63.1544 32.6902H66.6002Z" fill="white"/>
<path d="M72.1787 35.7032C72.5482 35.6636 72.8229 35.535 73.0027 35.3173C73.1925 35.0897 73.3023 34.7137 73.3323 34.1893C73.3822 33.3878 73.4072 32.3538 73.4072 31.0872C73.4072 30.167 73.4022 29.4744 73.3922 29.0093L73.3772 26.8126V26.0854C73.3772 25.8677 73.2774 25.6896 73.0776 25.5511C72.8778 25.4125 72.6032 25.3235 72.2536 25.2839V25.0909H74.9953L80.0291 32.3934L80.0441 29.9889C80.0441 28.5245 80.0291 27.5102 79.9991 26.9462C79.9692 26.4218 79.8243 26.026 79.5647 25.7588C79.305 25.4818 78.9105 25.3235 78.3811 25.2839V25.0909H81.6321V25.2839C81.2526 25.3235 80.9629 25.4521 80.7632 25.6698C80.5734 25.8875 80.4636 26.2387 80.4336 26.7236C80.3737 27.6042 80.3437 28.752 80.3437 30.167C80.3437 31.2159 80.3487 32.0075 80.3587 32.5418L80.3737 35.065V35.8961H80.119L73.7068 26.501C73.7268 30.5282 73.7518 33.086 73.7817 34.1744C73.8017 35.1144 74.2961 35.624 75.2649 35.7032V35.8961H72.1787V35.7032Z" fill="white"/>
<path d="M83.241 35.7032C83.6405 35.6537 83.9302 35.5498 84.1099 35.3915C84.2897 35.2233 84.3796 34.966 84.3796 34.6197V26.3674C84.3796 26.0211 84.2897 25.7687 84.1099 25.6104C83.9302 25.4422 83.6405 25.3334 83.241 25.2839V25.0909H87.5557C88.6144 25.0909 89.5133 25.3284 90.2524 25.8034C91.0015 26.2783 91.5608 26.9215 91.9304 27.7329C92.3099 28.5344 92.4997 29.4298 92.4997 30.4193C92.4997 31.5473 92.2949 32.522 91.8854 33.3433C91.4859 34.1645 90.9016 34.7978 90.1326 35.2431C89.3735 35.6784 88.4646 35.8961 87.4059 35.8961H83.241V35.7032ZM86.1325 34.6494C86.1325 34.9858 86.2174 35.2332 86.3871 35.3915C86.5669 35.5399 86.8416 35.6141 87.2111 35.6141H87.3759C88.0351 35.6141 88.6044 35.4113 89.0838 35.0056C89.5732 34.59 89.9428 34.0112 90.1925 33.269C90.4522 32.5269 90.582 31.6661 90.582 30.6865C90.582 28.9054 90.2924 27.5746 89.7131 26.6939C89.1338 25.8133 88.3447 25.3729 87.346 25.3729H87.2111C86.8416 25.3729 86.5669 25.4521 86.3871 25.6104C86.2174 25.7588 86.1325 26.0013 86.1325 26.3377V34.6494Z" fill="white"/>
<path d="M94.1835 35.7032C94.573 35.6537 94.8526 35.5498 95.0224 35.3915C95.2022 35.2233 95.2921 34.966 95.2921 34.6197V26.3674C95.2921 26.0211 95.2022 25.7687 95.0224 25.6104C94.8526 25.4422 94.573 25.3334 94.1835 25.2839V25.0909H101.584L101.854 27.8516H101.629C101.47 27.0007 101.12 26.3773 100.581 25.9815C100.041 25.5758 99.3122 25.3729 98.3933 25.3729H98.1985C97.4295 25.3729 97.0449 25.7044 97.0449 26.3674V29.6475H97.794C98.3833 29.6475 98.8228 29.6327 99.1124 29.603C99.5519 29.5634 99.8965 29.4051 100.146 29.128C100.396 28.851 100.551 28.4156 100.611 27.8219H100.82V31.859H100.611C100.541 31.1961 100.381 30.7261 100.131 30.449C99.8915 30.1621 99.5519 30.0037 99.1124 29.9741C98.8128 29.9543 98.3683 29.9444 97.779 29.9444C97.6192 29.9345 97.3745 29.9295 97.0449 29.9295V34.6197C97.0449 34.966 97.1348 35.2183 97.3146 35.3767C97.5044 35.535 97.799 35.6141 98.1985 35.6141H98.6779C99.6068 35.6141 100.341 35.4063 100.88 34.9908C101.42 34.5653 101.779 33.8677 101.959 32.898H102.184L101.914 35.8961H94.1835V35.7032Z" fill="white"/>
<path d="M104.014 35.7032C104.413 35.6537 104.703 35.5498 104.883 35.3915C105.063 35.2233 105.153 34.966 105.153 34.6197V26.3674C105.153 26.0211 105.063 25.7687 104.883 25.6104C104.703 25.4422 104.413 25.3334 104.014 25.2839V25.0909H108.329C109.387 25.0909 110.286 25.3284 111.025 25.8034C111.774 26.2783 112.334 26.9215 112.703 27.7329C113.083 28.5344 113.273 29.4298 113.273 30.4193C113.273 31.5473 113.068 32.522 112.658 33.3433C112.259 34.1645 111.675 34.7978 110.906 35.2431C110.146 35.6784 109.238 35.8961 108.179 35.8961H104.014V35.7032ZM106.905 34.6494C106.905 34.9858 106.99 35.2332 107.16 35.3915C107.34 35.5399 107.615 35.6141 107.984 35.6141H108.149C108.808 35.6141 109.377 35.4113 109.857 35.0056C110.346 34.59 110.716 34.0112 110.965 33.269C111.225 32.5269 111.355 31.6661 111.355 30.6865C111.355 28.9054 111.065 27.5746 110.486 26.6939C109.907 25.8133 109.118 25.3729 108.119 25.3729H107.984C107.615 25.3729 107.34 25.4521 107.16 25.6104C106.99 25.7588 106.905 26.0013 106.905 26.3377V34.6494Z" fill="white"/>
<path d="M39.0908 47.7321C39.4043 47.6933 39.6316 47.6117 39.7727 47.4874C39.9138 47.3631 39.9844 47.165 39.9844 46.8932V40.4031C39.9844 40.1312 39.9138 39.9331 39.7727 39.8088C39.6316 39.6768 39.4043 39.5913 39.0908 39.5525V39.401H42.8531C43.6918 39.401 44.358 39.5874 44.8518 39.9603C45.3456 40.3332 45.5925 40.8342 45.5925 41.4634C45.5925 41.9528 45.3926 42.3722 44.9929 42.7218C44.5932 43.0713 44.0719 43.3083 43.4292 43.4326L45.3926 46.6601C45.6121 47.0252 45.8277 47.2855 46.0393 47.4408C46.2509 47.5962 46.5174 47.6894 46.8388 47.7205V47.8836C46.5017 47.938 46.1725 47.9651 45.8512 47.9651C45.3495 47.9651 44.9302 47.8758 44.5932 47.6972C44.264 47.5107 43.9818 47.2117 43.7466 46.8L42.324 44.2831C42.0497 43.8015 41.7793 43.5607 41.5128 43.5607H41.3599V46.8932C41.3599 47.1728 41.4422 47.3748 41.6068 47.4991C41.7714 47.6234 42.0575 47.701 42.4651 47.7321V47.8836H39.0908V47.7321ZM41.5245 43.3277C42.1594 43.3277 42.665 43.2655 43.0412 43.1413C43.4174 43.017 43.6879 42.8267 43.8525 42.5703C44.0171 42.314 44.0994 41.9722 44.0994 41.5449C44.0994 40.9468 43.9544 40.4769 43.6643 40.1351C43.3822 39.7933 43.0177 39.6224 42.5709 39.6224H42.2065C41.9243 39.6224 41.7127 39.6845 41.5716 39.8088C41.4305 39.9253 41.3599 40.1234 41.3599 40.4031V43.3277H41.5245Z" fill="white"/>
<path d="M48.1029 47.7321C48.4086 47.6933 48.6281 47.6117 48.7613 47.4874C48.9024 47.3554 48.973 47.1534 48.973 46.8815V40.4031C48.973 40.1312 48.9024 39.9331 48.7613 39.8088C48.6281 39.6768 48.4086 39.5913 48.1029 39.5525V39.401H53.911L54.1226 41.5683H53.9462C53.8208 40.9002 53.5465 40.4108 53.1232 40.1001C52.7 39.7816 52.1278 39.6224 51.4067 39.6224H51.2539C50.6503 39.6224 50.3486 39.8826 50.3486 40.4031V42.9781H50.9364C51.3989 42.9781 51.7437 42.9665 51.971 42.9432C52.3159 42.9121 52.5863 42.7878 52.7823 42.5703C52.9782 42.3528 53.0997 42.011 53.1467 41.5449H53.3113V44.7143H53.1467C53.0919 44.1938 52.9665 43.8248 52.7705 43.6073C52.5824 43.3821 52.3159 43.2578 51.971 43.2345C51.7359 43.2189 51.3871 43.2112 50.9247 43.2112C50.7992 43.2034 50.6072 43.1995 50.3486 43.1995V46.8815C50.3486 47.1534 50.4191 47.3515 50.5602 47.4758C50.7091 47.6001 50.9403 47.6622 51.2539 47.6622H51.6301C52.359 47.6622 52.9351 47.4991 53.3584 47.1728C53.7816 46.8388 54.0638 46.2912 54.2049 45.5299H54.3812L54.1696 47.8836H48.1029V47.7321Z" fill="white"/>
<path d="M58.4893 48.0001C57.9641 48.0001 57.435 47.9418 56.9021 47.8253C56.3769 47.701 56.0163 47.5573 55.8204 47.3942L55.7028 45.0638H55.8674C56.1339 45.9338 56.518 46.6019 57.0196 47.0679C57.5213 47.5263 58.0738 47.7554 58.6774 47.7554C59.1712 47.7554 59.5474 47.6234 59.8061 47.3592C60.0726 47.0874 60.2058 46.7184 60.2058 46.2523C60.2058 45.9105 60.1078 45.5998 59.9119 45.3202C59.7238 45.0328 59.4886 44.7842 59.2064 44.5744C58.9243 44.3647 58.5441 44.1122 58.066 43.8171C57.5879 43.5297 57.2038 43.2772 56.9138 43.0597C56.6238 42.8422 56.3808 42.5897 56.1849 42.3023C55.9889 42.0149 55.8909 41.6964 55.8909 41.3469C55.8909 40.9507 55.9928 40.5973 56.1966 40.2865C56.4083 39.9681 56.7061 39.7195 57.0902 39.5408C57.4821 39.3622 57.9367 39.2728 58.454 39.2728C58.9321 39.2728 59.3789 39.3272 59.7943 39.436C60.2176 39.5447 60.5428 39.6884 60.7701 39.8671L60.8877 41.7663H60.7231C60.4409 41.0051 60.0922 40.438 59.6767 40.0652C59.2692 39.6923 58.8302 39.5059 58.3599 39.5059C58.0307 39.5059 57.7525 39.6302 57.5252 39.8787C57.3057 40.1273 57.196 40.4264 57.196 40.7759C57.196 41.0478 57.2783 41.2964 57.4429 41.5216C57.6075 41.7469 57.8152 41.9528 58.066 42.1392C58.3168 42.3179 58.6499 42.5354 59.0654 42.7917C59.5748 43.1102 59.9824 43.3898 60.2881 43.6306C60.6016 43.8637 60.8681 44.1472 61.0876 44.4812C61.3071 44.8152 61.4168 45.1959 61.4168 45.6231C61.4168 46.33 61.1738 46.9048 60.6878 47.3476C60.2019 47.7826 59.469 48.0001 58.4893 48.0001Z" fill="white"/>
<path d="M62.832 47.7321C63.1455 47.6933 63.3728 47.6156 63.5139 47.4991C63.655 47.3748 63.7255 47.1845 63.7255 46.9281V40.3565C63.7255 40.1001 63.655 39.9137 63.5139 39.7972C63.3728 39.6729 63.1455 39.5913 62.832 39.5525V39.401H66.0299V39.5525C65.7085 39.5835 65.4734 39.6612 65.3245 39.7855C65.1756 39.9098 65.1011 40.1001 65.1011 40.3565V46.9281C65.1011 47.1845 65.1756 47.3748 65.3245 47.4991C65.4734 47.6234 65.7085 47.701 66.0299 47.7321V47.8836H62.832V47.7321Z" fill="white"/>
<path d="M67.4352 47.7321C67.7487 47.6933 67.976 47.6117 68.1171 47.4874C68.2582 47.3554 68.3287 47.1534 68.3287 46.8815V40.4031C68.3287 40.1312 68.2582 39.9331 68.1171 39.8088C67.976 39.6768 67.7487 39.5913 67.4352 39.5525V39.401H70.8212C71.6521 39.401 72.3575 39.5874 72.9375 39.9603C73.5254 40.3332 73.9643 40.8381 74.2543 41.475C74.5521 42.1042 74.7011 42.8072 74.7011 43.584C74.7011 44.4696 74.5404 45.2347 74.219 45.8795C73.9055 46.5242 73.447 47.0213 72.8434 47.3709C72.2477 47.7127 71.5345 47.8836 70.7036 47.8836H67.4352V47.7321ZM69.7043 46.9048C69.7043 47.1689 69.7709 47.3631 69.9042 47.4874C70.0452 47.6039 70.2608 47.6622 70.5508 47.6622H70.6801C71.1974 47.6622 71.6442 47.503 72.0204 47.1845C72.4045 46.8582 72.6945 46.4038 72.8905 45.8212C73.0943 45.2386 73.1962 44.5628 73.1962 43.7938C73.1962 42.3955 72.9688 41.3507 72.5142 40.6594C72.0596 39.9681 71.4404 39.6224 70.6566 39.6224H70.5508C70.2608 39.6224 70.0452 39.6845 69.9042 39.8088C69.7709 39.9253 69.7043 40.1156 69.7043 40.3798V46.9048Z" fill="white"/>
<path d="M76.0225 47.7321C76.3281 47.6933 76.5476 47.6117 76.6809 47.4874C76.8219 47.3554 76.8925 47.1534 76.8925 46.8815V40.4031C76.8925 40.1312 76.8219 39.9331 76.6809 39.8088C76.5476 39.6768 76.3281 39.5913 76.0225 39.5525V39.401H81.8305L82.0421 41.5683H81.8658C81.7403 40.9002 81.466 40.4108 81.0428 40.1001C80.6195 39.7816 80.0473 39.6224 79.3262 39.6224H79.1734C78.5698 39.6224 78.2681 39.8826 78.2681 40.4031V42.9781H78.8559C79.3184 42.9781 79.6632 42.9665 79.8906 42.9432C80.2354 42.9121 80.5058 42.7878 80.7018 42.5703C80.8977 42.3528 81.0192 42.011 81.0663 41.5449H81.2309V44.7143H81.0663C81.0114 44.1938 80.886 43.8248 80.69 43.6073C80.5019 43.3821 80.2354 43.2578 79.8906 43.2345C79.6554 43.2189 79.3066 43.2112 78.8442 43.2112C78.7188 43.2034 78.5267 43.1995 78.2681 43.1995V46.8815C78.2681 47.1534 78.3386 47.3515 78.4797 47.4758C78.6286 47.6001 78.8598 47.6622 79.1734 47.6622H79.5496C80.2785 47.6622 80.8546 47.4991 81.2779 47.1728C81.7011 46.8388 81.9833 46.2912 82.1244 45.5299H82.3008L82.0891 47.8836H76.0225V47.7321Z" fill="white"/>
<path d="M83.5283 47.7321C83.8183 47.701 84.0338 47.6001 84.1749 47.4292C84.3238 47.2505 84.4101 46.9553 84.4336 46.5436C84.4728 45.9144 84.4924 45.1027 84.4924 44.1084C84.4924 43.3859 84.4884 42.8422 84.4806 42.4771L84.4689 40.7526V40.1817C84.4689 40.0108 84.3905 39.871 84.2337 39.7622C84.077 39.6535 83.8614 39.5835 83.5871 39.5525V39.401H85.7386L89.689 45.1337L89.7008 43.2461C89.7008 42.0965 89.689 41.3003 89.6655 40.8575C89.642 40.4458 89.5283 40.1351 89.3246 39.9253C89.1208 39.7078 88.8112 39.5835 88.3957 39.5525V39.401H90.947V39.5525C90.6492 39.5835 90.4219 39.6845 90.2651 39.8554C90.1162 40.0263 90.03 40.3021 90.0065 40.6827C89.9594 41.3741 89.9359 42.2751 89.9359 43.3859C89.9359 44.2093 89.9398 44.8308 89.9477 45.2503L89.9594 47.2311V47.8836H89.7596L84.7275 40.5079C84.7432 43.6695 84.7628 45.6775 84.7863 46.532C84.802 47.2699 85.19 47.67 85.9503 47.7321V47.8836H83.5283V47.7321Z" fill="white"/>
<path d="M95.9719 48.0001C95.2743 48.0001 94.6473 47.8292 94.0908 47.4874C93.5421 47.1456 93.111 46.6407 92.7975 45.9727C92.484 45.3046 92.3272 44.5006 92.3272 43.5607C92.3272 42.6829 92.4879 41.9217 92.8093 41.277C93.1385 40.6244 93.5852 40.1273 94.1496 39.7855C94.7217 39.4437 95.3684 39.2728 96.0895 39.2728C96.9674 39.2728 97.7198 39.4243 98.3469 39.7273L98.4644 42.011H98.2998C98.0333 41.1022 97.712 40.4574 97.3358 40.0768C96.9595 39.6962 96.501 39.5059 95.9602 39.5059C95.5291 39.5059 95.1528 39.669 94.8315 39.9952C94.5101 40.3215 94.2632 40.7876 94.0908 41.3935C93.9183 41.9916 93.8321 42.6946 93.8321 43.5025C93.8321 44.3647 93.9379 45.0988 94.1496 45.7047C94.3612 46.3106 94.659 46.7689 95.0431 47.0796C95.435 47.3825 95.8896 47.534 96.4069 47.534C96.838 47.534 97.2339 47.4447 97.5944 47.266C97.955 47.0874 98.2959 46.7611 98.6173 46.2873L98.7819 46.3921C98.4605 46.9437 98.0647 47.3515 97.5944 47.6156C97.132 47.8719 96.5911 48.0001 95.9719 48.0001Z" fill="white"/>
<path d="M99.9588 47.7321C100.264 47.6933 100.484 47.6117 100.617 47.4874C100.758 47.3554 100.829 47.1534 100.829 46.8815V40.4031C100.829 40.1312 100.758 39.9331 100.617 39.8088C100.484 39.6768 100.264 39.5913 99.9588 39.5525V39.401H105.767L105.978 41.5683H105.802C105.677 40.9002 105.402 40.4108 104.979 40.1001C104.556 39.7816 103.984 39.6224 103.263 39.6224H103.11C102.506 39.6224 102.204 39.8826 102.204 40.4031V42.9781H102.792C103.255 42.9781 103.6 42.9665 103.827 42.9432C104.172 42.9121 104.442 42.7878 104.638 42.5703C104.834 42.3528 104.956 42.011 105.003 41.5449H105.167V44.7143H105.003C104.948 44.1938 104.822 43.8248 104.626 43.6073C104.438 43.3821 104.172 43.2578 103.827 43.2345C103.592 43.2189 103.243 43.2112 102.78 43.2112C102.655 43.2034 102.463 43.1995 102.204 43.1995V46.8815C102.204 47.1534 102.275 47.3515 102.416 47.4758C102.565 47.6001 102.796 47.6622 103.11 47.6622H103.486C104.215 47.6622 104.791 47.4991 105.214 47.1728C105.637 46.8388 105.92 46.2912 106.061 45.5299H106.237L106.025 47.8836H99.9588V47.7321Z" fill="white"/>
<path d="M110.345 48.0001C109.82 48.0001 109.291 47.9418 108.758 47.8253C108.233 47.701 107.872 47.5573 107.676 47.3942L107.559 45.0638H107.723C107.99 45.9338 108.374 46.6019 108.875 47.0679C109.377 47.5263 109.93 47.7554 110.533 47.7554C111.027 47.7554 111.403 47.6234 111.662 47.3592C111.928 47.0874 112.062 46.7184 112.062 46.2523C112.062 45.9105 111.964 45.5998 111.768 45.3202C111.58 45.0328 111.344 44.7842 111.062 44.5744C110.78 44.3647 110.4 44.1122 109.922 43.8171C109.444 43.5297 109.06 43.2772 108.77 43.0597C108.48 42.8422 108.237 42.5897 108.041 42.3023C107.845 42.0149 107.747 41.6964 107.747 41.3469C107.747 40.9507 107.849 40.5973 108.052 40.2865C108.264 39.9681 108.562 39.7195 108.946 39.5408C109.338 39.3622 109.793 39.2728 110.31 39.2728C110.788 39.2728 111.235 39.3272 111.65 39.436C112.073 39.5447 112.399 39.6884 112.626 39.8671L112.744 41.7663H112.579C112.297 41.0051 111.948 40.438 111.533 40.0652C111.125 39.6923 110.686 39.5059 110.216 39.5059C109.887 39.5059 109.608 39.6302 109.381 39.8787C109.162 40.1273 109.052 40.4264 109.052 40.7759C109.052 41.0478 109.134 41.2964 109.299 41.5216C109.463 41.7469 109.671 41.9528 109.922 42.1392C110.173 42.3179 110.506 42.5354 110.921 42.7917C111.431 43.1102 111.838 43.3898 112.144 43.6306C112.457 43.8637 112.724 44.1472 112.943 44.4812C113.163 44.8152 113.273 45.1959 113.273 45.6231C113.273 46.33 113.03 46.9048 112.544 47.3476C112.058 47.7826 111.325 48.0001 110.345 48.0001Z" fill="white"/>
</g>
<defs>
<clipPath id="clip0_541_8105">
<rect width="113.273" height="48" fill="white"/>
</clipPath>
</defs>
</svg>
