<svg width="21" height="20" viewBox="0 0 21 20" fill="none" xmlns="http://www.w3.org/2000/svg">
<path fill-rule="evenodd" clip-rule="evenodd" d="M17.8333 2.875C15.9583 1 13.4583 0 10.8333 0C5.33325 0 0.833252 4.5 0.833252 10C0.833252 11.75 1.33326 13.5 2.20826 15L0.833252 20L6.08327 18.625C7.58327 19.375 9.20825 19.875 10.8333 19.875C16.3333 19.875 20.8333 15.375 20.8333 9.875C20.8333 7.25 19.7083 4.75 17.8333 2.875ZM10.8333 18.25C9.33325 18.25 7.83326 17.875 6.58326 17.125L6.33324 17L3.20824 17.875L4.08326 14.875L3.83324 14.5C2.95824 13.125 2.58324 11.625 2.58324 10.125C2.58324 5.625 6.33325 1.875 10.8333 1.875C13.0833 1.875 15.0833 2.75 16.7083 4.25C18.3333 5.875 19.0833 7.875 19.0833 10.125C19.0833 14.5 15.4583 18.25 10.8333 18.25ZM15.3333 12C15.0833 11.875 13.8333 11.25 13.5833 11.25C13.3333 11.125 13.2082 11.125 13.0832 11.375C12.9582 11.625 12.4583 12.125 12.3333 12.375C12.2083 12.5 12.0832 12.5 11.8332 12.5C11.5832 12.375 10.8333 12.125 9.83327 11.25C9.08327 10.625 8.58326 9.75 8.45826 9.5C8.33326 9.25 8.45827 9.125 8.58327 9C8.70827 8.875 8.83325 8.75 8.95825 8.625C9.08325 8.5 9.08327 8.375 9.20827 8.25C9.33327 8.125 9.20827 8 9.20827 7.875C9.20827 7.75 8.70826 6.5 8.45826 6C8.33326 5.625 8.08327 5.625 7.95827 5.625C7.83327 5.625 7.70824 5.625 7.45824 5.625C7.33324 5.625 7.08324 5.625 6.83324 5.875C6.58324 6.125 5.95826 6.75 5.95826 8C5.95826 9.25 6.83324 10.375 6.95824 10.625C7.08324 10.75 8.70824 13.375 11.2082 14.375C13.3332 15.25 13.7083 15 14.2083 15C14.7083 15 15.7083 14.375 15.8333 13.875C16.0833 13.25 16.0833 12.75 15.9583 12.75C15.8333 12.125 15.5833 12.125 15.3333 12Z" fill="#6B7280"/>
</svg>
