<svg width="36" height="36" viewBox="0 0 36 36" fill="none" xmlns="http://www.w3.org/2000/svg">
<g clip-path="url(#clip0_1530_1021)">
<path fill-rule="evenodd" clip-rule="evenodd" d="M1.2 1.2H17.4V17.4H1.2V1.2ZM1.2 18.6H17.4V34.8V36H18.6H34.8H36V34.8V18.6V17.4H34.8H18.6V1.2V0H17.4H1.2H0V1.2V17.4V18.6H1.2ZM6.6 25.2H12V30.6H6.6V25.2ZM5.4 24H6.6H12H13.2V25.2V30.6V31.8H12H6.6H5.4V30.6V25.2V24ZM34.8 18.6H18.6V34.8H34.8V18.6ZM35.4 4.8H22.2V6H35.4V4.8ZM29.35 9H22.2V10.2H29.35V9ZM22.2 13.2H32.65V14.4H22.2V13.2Z" fill="#B3804C"/>
</g>
<defs>
<clipPath id="clip0_1530_1021">
<rect width="36" height="36" fill="white"/>
</clipPath>
</defs>
</svg>
