<svg width="36" height="36" viewBox="0 0 36 36" fill="none" xmlns="http://www.w3.org/2000/svg">
<g clip-path="url(#clip0_1530_1043)">
<path fill-rule="evenodd" clip-rule="evenodd" d="M15.6774 5.01639V15.6393C15.6774 17.7579 13.9877 19.4754 11.9032 19.4754C9.81883 19.4754 8.12903 17.758 8.12903 15.6393V5.01639C8.12903 2.89779 9.81883 1.18033 11.9032 1.18033C13.9877 1.18033 15.6774 2.89779 15.6774 5.01639ZM6.96774 5.01639C6.96774 2.24592 9.17744 0 11.9032 0C14.629 0 16.8387 2.24592 16.8387 5.01639V15.6393C16.8387 18.4098 14.629 20.6557 11.9032 20.6557C9.17744 20.6557 6.96774 18.4098 6.96774 15.6393V5.01639ZM24.0968 12.9836C25.8605 12.9836 27.2903 11.5304 27.2903 9.73771C27.2903 7.94502 25.8605 6.4918 24.0968 6.4918C22.333 6.4918 20.9032 7.94502 20.9032 9.73771C20.9032 11.5304 22.333 12.9836 24.0968 12.9836ZM24.0968 14.1639C26.5019 14.1639 28.4516 12.1822 28.4516 9.73771C28.4516 7.29319 26.5019 5.31148 24.0968 5.31148C21.6917 5.31148 19.7419 7.29319 19.7419 9.73771C19.7419 12.1822 21.6917 14.1639 24.0968 14.1639ZM24.8883 34.6074C22.7044 35.5268 20.3638 36 18 36C15.6362 36 13.2956 35.5268 11.1117 34.6074C8.92783 33.688 6.94353 32.3403 5.27207 30.6415C3.60062 28.9426 2.27475 26.9258 1.37017 24.7062C0.465582 22.4865 0 20.1075 0 17.7049V17.1148H0.580645H4.35484V18.2951H1.17131C1.24076 20.3413 1.67097 22.3599 2.44306 24.2544C3.28928 26.3309 4.52961 28.2176 6.09323 29.8069C7.65685 31.3961 9.51312 32.6568 11.5561 33.5169C13.5991 34.377 15.7887 34.8197 18 34.8197C20.2113 34.8197 22.4009 34.377 24.4439 33.5169C26.4869 32.6568 28.3431 31.3961 29.9068 29.8069C31.4704 28.2176 32.7107 26.3309 33.5569 24.2544C34.329 22.36 34.7592 20.3413 34.8287 18.2951H19.4516V17.1148H35.4194H36V17.7049C36 20.1075 35.5344 22.4865 34.6299 24.7062C33.7253 26.9258 32.3994 28.9426 30.7279 30.6415C29.0565 32.3403 27.0722 33.688 24.8883 34.6074Z" fill="#B3804C"/>
</g>
<defs>
<clipPath id="clip0_1530_1043">
<rect width="36" height="36" fill="white"/>
</clipPath>
</defs>
</svg>
