<svg width="66" height="66" viewBox="0 0 66 66" fill="none" xmlns="http://www.w3.org/2000/svg">
<rect width="65.0909" height="65.0909" rx="17.4545" fill="#EAD5C2" fill-opacity="0.56"/>
<path d="M29.5455 39.4213V43.0448C29.5455 44.7017 30.8886 46.0448 32.5455 46.0448C34.2023 46.0448 35.5455 44.7017 35.5455 43.0448L35.5455 39.4213M32.5455 19.0454V20.5454M42.0918 22.999L41.0312 24.0597M22.9991 22.999L24.0597 24.0597M20.5455 32.5454H19.0455M46.0455 32.5454H44.5455M40.0455 32.5454C40.0455 36.6875 36.6876 40.0454 32.5455 40.0454C28.4033 40.0454 25.0455 36.6875 25.0455 32.5454C25.0455 28.4033 28.4033 25.0454 32.5455 25.0454C36.6876 25.0454 40.0455 28.4033 40.0455 32.5454Z" stroke="#B3804C" stroke-width="2" stroke-linecap="round" stroke-linejoin="round"/>
</svg>
