<svg width="66" height="66" viewBox="0 0 66 66" fill="none" xmlns="http://www.w3.org/2000/svg">
<rect width="65.0909" height="65.0909" rx="17.4545" fill="#EAD5C2" fill-opacity="0.56"/>
<path d="M32.5455 31.0454L26.5455 19.0454H20.5455L27.3042 33.2387M32.5455 31.0454L38.5455 19.0454H44.5455L37.7868 33.2387M32.5455 31.0454C34.5614 31.0454 36.4227 31.8907 37.7868 33.2387M32.5455 31.0454C30.5295 31.0454 28.6682 31.8907 27.3042 33.2387M37.7868 33.2387C39.1728 34.6084 40.0455 36.497 40.0455 38.5454C40.0455 42.6875 36.6876 46.0454 32.5455 46.0454C28.4033 46.0454 25.0455 42.6875 25.0455 38.5454C25.0455 36.497 25.9181 34.6084 27.3042 33.2387" stroke="#B3804C" stroke-width="2" stroke-linejoin="round"/>
</svg>
