<svg width="66" height="66" viewBox="0 0 66 66" fill="none" xmlns="http://www.w3.org/2000/svg">
<rect width="65.0909" height="65.0909" rx="17.4545" fill="#EAD5C2" fill-opacity="0.56"/>
<path d="M20.5455 28.0454V25.3454C20.5455 23.6653 20.5455 22.8252 20.8724 22.1834C21.1601 21.619 21.619 21.16 22.1835 20.8724C22.8252 20.5454 23.6653 20.5454 25.3455 20.5454H39.7455C41.4256 20.5454 42.2657 20.5454 42.9074 20.8724C43.4719 21.16 43.9309 21.619 44.2185 22.1834C44.5455 22.8252 44.5455 23.6653 44.5455 25.3454V39.7454C44.5455 41.4256 44.5455 42.2656 44.2185 42.9074C43.9309 43.4719 43.4719 43.9308 42.9074 44.2184C42.2657 44.5454 41.4256 44.5454 39.7455 44.5454H30.2955M31.0455 38.5454H40.0455M26.5455 31.0454L31.0455 28.0454V32.5454L40.0455 25.0454M40.0455 25.0454H35.5455M40.0455 25.0454V29.5454M25.0455 36.2955C24.2955 36.1094 23.0731 36.1026 22.0455 36.1094C21.7018 36.1117 21.9096 36.0971 21.4455 36.1094C20.2343 36.1472 19.0479 36.6506 19.0455 38.0767C19.0428 39.596 20.5455 40.0455 22.0455 40.0455C23.5455 40.0455 25.0455 40.3923 25.0455 42.0142C25.0455 43.2331 23.8342 43.7672 22.3246 43.944C21.1246 43.944 20.5455 43.983 19.0455 43.7955M22.0455 44.5454V46.0454M22.0455 34.0454V35.5454" stroke="#B3804C" stroke-width="2" stroke-linecap="round" stroke-linejoin="round"/>
</svg>
