<svg width="73" height="72" viewBox="0 0 73 72" fill="none" xmlns="http://www.w3.org/2000/svg">
<path d="M9.66675 63V51M27.6667 63V39M45.6667 63V45M63.6667 63V33M25.9848 16.682C26.7991 17.4963 27.9241 18 29.1667 18C30.4094 18 31.5344 17.4963 32.3487 16.682M25.9848 16.682C25.1704 15.8676 24.6667 14.7426 24.6667 13.5C24.6667 11.0147 26.6815 9 29.1667 9C31.652 9 33.6667 11.0147 33.6667 13.5C33.6667 14.7426 33.1631 15.8676 32.3487 16.682M25.9848 16.682L17.3487 25.318M17.3487 25.318C16.5344 24.5037 15.4094 24 14.1667 24C11.6815 24 9.66675 26.0147 9.66675 28.5C9.66675 30.9853 11.6815 33 14.1667 33C16.652 33 18.6667 30.9853 18.6667 28.5C18.6667 27.2574 18.1631 26.1324 17.3487 25.318ZM32.3487 16.682L40.9848 25.318M40.9848 25.318C40.1704 26.1324 39.6667 27.2574 39.6667 28.5C39.6667 30.9853 41.6815 33 44.1667 33C46.652 33 48.6667 30.9853 48.6667 28.5C48.6667 27.2574 48.1631 26.1324 47.3487 25.318M40.9848 25.318C41.7991 24.5037 42.9241 24 44.1667 24C45.4094 24 46.5344 24.5037 47.3487 25.318M47.3487 25.318L55.9848 16.682M55.9848 16.682C56.7991 17.4963 57.9241 18 59.1667 18C61.652 18 63.6667 15.9853 63.6667 13.5C63.6667 11.0147 61.652 9 59.1667 9C56.6815 9 54.6667 11.0147 54.6667 13.5C54.6667 14.7426 55.1704 15.8676 55.9848 16.682Z" stroke="#B3804C" stroke-width="3" stroke-linecap="round" stroke-linejoin="round"/>
</svg>
