<svg width="40" height="40" viewBox="0 0 40 40" fill="none" xmlns="http://www.w3.org/2000/svg">
<path d="M6.66667 13.3333L9.52707 15.6217C11.387 17.1096 12.3169 17.8535 13.2543 17.969C14.0755 18.0701 14.905 17.8622 15.5814 17.3857C16.3535 16.8418 16.8226 15.7472 17.7609 13.5579L20 8.33333L22.2391 13.5579C23.1774 15.7472 23.6465 16.8418 24.4186 17.3857C25.095 17.8622 25.9245 18.0701 26.7457 17.969C27.6831 17.8535 28.613 17.1096 30.4729 15.6217L33.3333 13.3333L30 33.3333H10L6.66667 13.3333Z" fill="#B3804C"/>
<path d="M21.6667 6.66667C21.6667 7.58714 20.9205 8.33333 20 8.33333C19.0795 8.33333 18.3333 7.58714 18.3333 6.66667C18.3333 5.74619 19.0795 5 20 5C20.9205 5 21.6667 5.74619 21.6667 6.66667Z" fill="#B3804C"/>
<path d="M8.33333 11.6667C8.33333 12.5871 7.58714 13.3333 6.66667 13.3333C5.74619 13.3333 5 12.5871 5 11.6667C5 10.7462 5.74619 10 6.66667 10C7.58714 10 8.33333 10.7462 8.33333 11.6667Z" fill="#B3804C"/>
<path d="M35 11.6667C35 12.5871 34.2538 13.3333 33.3333 13.3333C32.4129 13.3333 31.6667 12.5871 31.6667 11.6667C31.6667 10.7462 32.4129 10 33.3333 10C34.2538 10 35 10.7462 35 11.6667Z" fill="#B3804C"/>
</svg>
