<svg width="40" height="40" viewBox="0 0 40 40" fill="none" xmlns="http://www.w3.org/2000/svg">
<path d="M5 20.2168V24.3332C5 28.0669 5 29.9337 5.72662 31.3598C6.36578 32.6142 7.38565 33.6341 8.64006 34.2733C10.0661 34.9999 11.933 34.9999 15.6667 34.9999H24.3333C28.067 34.9999 29.9339 34.9999 31.3599 34.2733C32.6143 33.6341 33.6342 32.6142 34.2734 31.3598C35 29.9337 35 28.0669 35 24.3332V20.2168C35 18.3023 35 17.345 34.7532 16.4635C34.5347 15.6826 34.1754 14.9481 33.6932 14.2961C33.1489 13.5601 32.3933 12.9724 30.882 11.797L26.5487 8.42666C24.2065 6.60498 23.0354 5.69413 21.7423 5.344C20.6013 5.03507 19.3987 5.03507 18.2577 5.344C16.9646 5.69413 15.7935 6.60497 13.4513 8.42666L9.11797 11.797C7.60674 12.9724 6.85112 13.5601 6.30676 14.2961C5.82455 14.9481 5.46534 15.6826 5.24676 16.4635C5 17.345 5 18.3023 5 20.2168Z" fill="#B3804C"/>
</svg>
