<svg width="80" height="81" viewBox="0 0 80 81" fill="none" xmlns="http://www.w3.org/2000/svg">
<rect x="4.5" y="5" width="71" height="71" rx="35.5" fill="#B3804C"/>
<rect x="4.5" y="5" width="71" height="71" rx="35.5" stroke="white" stroke-width="9"/>
<path d="M34.7336 51.336C33.0909 51.336 31.5883 50.8507 30.2256 49.88C28.8629 48.8907 27.7803 47.556 26.9776 45.876C26.1936 44.196 25.8016 42.3667 25.8016 40.388C25.8016 38.428 26.1936 36.6173 26.9776 34.956C27.7803 33.2947 28.8629 31.9787 30.2256 31.008C31.5883 30.0187 33.0909 29.524 34.7336 29.524C36.3576 29.524 37.8509 30.0187 39.2136 31.008C40.5763 31.9787 41.6496 33.2947 42.4336 34.956C43.2363 36.6173 43.6376 38.428 43.6376 40.388C43.6376 42.3667 43.2363 44.196 42.4336 45.876C41.6496 47.556 40.5763 48.8907 39.2136 49.88C37.8509 50.8507 36.3576 51.336 34.7336 51.336ZM34.7336 50.748C35.7976 50.748 36.6189 49.852 37.1976 48.06C37.7763 46.268 38.0656 43.7107 38.0656 40.388C38.0656 37.1027 37.7763 34.5733 37.1976 32.8C36.6189 31.008 35.7976 30.112 34.7336 30.112C33.6509 30.112 32.8109 31.008 32.2136 32.8C31.6349 34.5733 31.3456 37.1027 31.3456 40.388C31.3456 43.7107 31.6349 46.268 32.2136 48.06C32.8109 49.852 33.6509 50.748 34.7336 50.748ZM45.1748 51L47.1908 49.236V33.584L44.0548 32.268L52.5388 29.524V49.236L54.5548 51H45.1748Z" fill="white"/>
</svg>
