<svg width="80" height="80" viewBox="0 0 80 80" fill="none" xmlns="http://www.w3.org/2000/svg">
<rect x="4.5" y="4.5" width="71" height="71" rx="35.5" fill="#B3804C"/>
<rect x="4.5" y="4.5" width="71" height="71" rx="35.5" stroke="white" stroke-width="9"/>
<path d="M31.2063 50.836C29.5636 50.836 28.0609 50.3507 26.6982 49.38C25.3356 48.3907 24.2529 47.056 23.4502 45.376C22.6662 43.696 22.2742 41.8667 22.2742 39.888C22.2742 37.928 22.6662 36.1173 23.4502 34.456C24.2529 32.7947 25.3356 31.4787 26.6982 30.508C28.0609 29.5187 29.5636 29.024 31.2063 29.024C32.8302 29.024 34.3236 29.5187 35.6862 30.508C37.0489 31.4787 38.1222 32.7947 38.9062 34.456C39.7089 36.1173 40.1103 37.928 40.1103 39.888C40.1103 41.8667 39.7089 43.696 38.9062 45.376C38.1222 47.056 37.0489 48.3907 35.6862 49.38C34.3236 50.3507 32.8302 50.836 31.2063 50.836ZM31.2063 50.248C32.2702 50.248 33.0916 49.352 33.6703 47.56C34.2489 45.768 34.5382 43.2107 34.5382 39.888C34.5382 36.6027 34.2489 34.0733 33.6703 32.3C33.0916 30.508 32.2702 29.612 31.2063 29.612C30.1236 29.612 29.2836 30.508 28.6863 32.3C28.1076 34.0733 27.8182 36.6027 27.8182 39.888C27.8182 43.2107 28.1076 45.768 28.6863 47.56C29.2836 49.352 30.1236 50.248 31.2063 50.248ZM47.0685 50.5L49.1125 48.736V45.908H39.8725L54.4325 28.548L54.4045 42.1H57.8765V45.908H54.4045V48.736L56.0845 50.5H47.0685ZM49.1125 35.884L43.8485 42.1H49.1125V35.884Z" fill="white"/>
</svg>
