<svg width="80" height="81" viewBox="0 0 80 81" fill="none" xmlns="http://www.w3.org/2000/svg">
<rect x="4.5" y="5" width="71" height="71" rx="35.5" fill="#B3804C"/>
<rect x="4.5" y="5" width="71" height="71" rx="35.5" stroke="white" stroke-width="9"/>
<path d="M31.6027 51.336C29.9601 51.336 28.4574 50.8507 27.0947 49.88C25.7321 48.8907 24.6494 47.556 23.8467 45.876C23.0627 44.196 22.6707 42.3667 22.6707 40.388C22.6707 38.428 23.0627 36.6173 23.8467 34.956C24.6494 33.2947 25.7321 31.9787 27.0947 31.008C28.4574 30.0187 29.9601 29.524 31.6027 29.524C33.2267 29.524 34.7201 30.0187 36.0827 31.008C37.4454 31.9787 38.5187 33.2947 39.3027 34.956C40.1054 36.6173 40.5067 38.428 40.5067 40.388C40.5067 42.3667 40.1054 44.196 39.3027 45.876C38.5187 47.556 37.4454 48.8907 36.0827 49.88C34.7201 50.8507 33.2267 51.336 31.6027 51.336ZM31.6027 50.748C32.6667 50.748 33.4881 49.852 34.0667 48.06C34.6454 46.268 34.9347 43.7107 34.9347 40.388C34.9347 37.1027 34.6454 34.5733 34.0667 32.8C33.4881 31.008 32.6667 30.112 31.6027 30.112C30.5201 30.112 29.6801 31.008 29.0827 32.8C28.5041 34.5733 28.2147 37.1027 28.2147 40.388C28.2147 43.7107 28.5041 46.268 29.0827 48.06C29.6801 49.852 30.5201 50.748 31.6027 50.748ZM49.5238 51.336C48.4785 51.336 47.2558 51.084 45.8558 50.58C44.4745 50.0573 43.2892 49.404 42.2998 48.62C41.3292 47.8173 40.8438 47.0147 40.8438 46.212C40.8438 45.652 41.0118 45.204 41.3478 44.868C41.6838 44.5133 42.1318 44.336 42.6918 44.336C43.2705 44.336 43.7092 44.4947 44.0078 44.812C44.3252 45.1107 44.5492 45.484 44.6798 45.932C44.8105 46.3613 44.9225 46.9307 45.0158 47.64C45.1278 48.3493 45.2398 48.8813 45.3518 49.236C45.4638 49.5907 45.6505 49.8427 45.9118 49.992C46.1358 50.1227 46.4158 50.2253 46.7518 50.3C47.1065 50.356 47.4612 50.384 47.8158 50.384C49.0292 50.384 49.9998 49.9267 50.7278 49.012C51.4558 48.0787 51.8198 46.8187 51.8198 45.232C51.8198 43.8507 51.4558 42.7213 50.7278 41.844C49.9998 40.9667 49.0292 40.528 47.8158 40.528C47.4238 40.528 47.0225 40.556 46.6118 40.612C46.2012 40.668 45.7625 40.7427 45.2958 40.836C46.8078 40.052 48.0118 39.044 48.9078 37.812C49.8225 36.5613 50.2798 35.292 50.2798 34.004C50.2798 33.0707 50.0465 32.3053 49.5798 31.708C49.1132 31.092 48.5345 30.784 47.8438 30.784C47.3025 30.784 46.8358 30.952 46.4438 31.288C46.1825 31.4933 45.9958 31.8013 45.8838 32.212C45.7718 32.6227 45.6785 33.1547 45.6038 33.808C45.5292 34.48 45.4358 35.0213 45.3238 35.432C45.2305 35.8427 45.0345 36.188 44.7358 36.468C44.4558 36.748 44.0452 36.888 43.5038 36.888C42.9625 36.888 42.5145 36.7013 42.1598 36.328C41.8052 35.9547 41.6278 35.4787 41.6278 34.9C41.6278 33.948 42.2065 33.0707 43.3638 32.268C44.5212 31.4467 45.8558 30.784 47.3678 30.28C48.8798 29.776 50.0652 29.524 50.9238 29.524C52.3612 29.524 53.5185 29.888 54.3958 30.616C55.2732 31.344 55.7118 32.2773 55.7118 33.416C55.7118 34.312 55.3945 35.1147 54.7598 35.824C54.1252 36.5333 53.3505 37.14 52.4358 37.644C51.5212 38.148 50.3358 38.7267 48.8798 39.38L47.6758 39.94C48.3852 39.772 49.1972 39.688 50.1118 39.688C51.5492 39.688 52.8092 39.9307 53.8918 40.416C54.9932 40.8827 55.8425 41.536 56.4398 42.376C57.0558 43.216 57.3638 44.1867 57.3638 45.288C57.3638 46.464 57.0372 47.5093 56.3838 48.424C55.7305 49.3387 54.8065 50.0573 53.6118 50.58C52.4358 51.084 51.0732 51.336 49.5238 51.336Z" fill="white"/>
</svg>
