<svg width="80" height="80" viewBox="0 0 80 80" fill="none" xmlns="http://www.w3.org/2000/svg">
<rect x="4.5" y="4.5" width="71" height="71" rx="35.5" fill="#B3804C"/>
<rect x="4.5" y="4.5" width="71" height="71" rx="35.5" stroke="white" stroke-width="9"/>
<path d="M32.2727 50.836C30.63 50.836 29.1273 50.3507 27.7647 49.38C26.402 48.3907 25.3193 47.056 24.5167 45.376C23.7327 43.696 23.3407 41.8667 23.3407 39.888C23.3407 37.928 23.7327 36.1173 24.5167 34.456C25.3193 32.7947 26.402 31.4787 27.7647 30.508C29.1273 29.5187 30.63 29.024 32.2727 29.024C33.8967 29.024 35.39 29.5187 36.7527 30.508C38.1153 31.4787 39.1887 32.7947 39.9727 34.456C40.7753 36.1173 41.1767 37.928 41.1767 39.888C41.1767 41.8667 40.7753 43.696 39.9727 45.376C39.1887 47.056 38.1153 48.3907 36.7527 49.38C35.39 50.3507 33.8967 50.836 32.2727 50.836ZM32.2727 50.248C33.3367 50.248 34.158 49.352 34.7367 47.56C35.3153 45.768 35.6047 43.2107 35.6047 39.888C35.6047 36.6027 35.3153 34.0733 34.7367 32.3C34.158 30.508 33.3367 29.612 32.2727 29.612C31.19 29.612 30.35 30.508 29.7527 32.3C29.174 34.0733 28.8847 36.6027 28.8847 39.888C28.8847 43.2107 29.174 45.768 29.7527 47.56C30.35 49.352 31.19 50.248 32.2727 50.248ZM42.0932 50.5C43.9226 48.54 45.8452 46.216 47.8612 43.528C48.7946 42.2773 49.5319 40.8773 50.0732 39.328C50.6332 37.7787 50.9132 36.2853 50.9132 34.848C50.9132 33.448 50.6332 32.3467 50.0732 31.544C49.5319 30.7227 48.8132 30.312 47.9172 30.312C47.3946 30.312 46.9279 30.4707 46.5172 30.788C46.2559 30.9933 46.0692 31.3013 45.9572 31.712C45.8452 32.1227 45.7519 32.6547 45.6772 33.308C45.6026 33.98 45.5092 34.5213 45.3972 34.932C45.3039 35.3427 45.1079 35.688 44.8092 35.968C44.5292 36.248 44.1186 36.388 43.5772 36.388C43.0172 36.388 42.5599 36.2013 42.2052 35.828C41.8506 35.4547 41.6732 34.9693 41.6732 34.372C41.6732 33.4387 42.2519 32.5707 43.4092 31.768C44.5666 30.9467 45.9106 30.284 47.4412 29.78C48.9719 29.276 50.1666 29.024 51.0252 29.024C52.0519 29.024 52.9666 29.22 53.7692 29.612C54.5719 30.004 55.1879 30.5453 55.6172 31.236C56.0652 31.9267 56.2892 32.72 56.2892 33.616C56.2892 34.4933 56.0839 35.324 55.6732 36.108C55.2812 36.892 54.7306 37.676 54.0212 38.46C53.3306 39.244 52.2666 40.336 50.8292 41.736C49.6346 42.8933 48.6732 43.8453 47.9452 44.592L47.0212 45.6H56.9892V50.5H42.0932Z" fill="white"/>
</svg>
