<svg width="66" height="66" viewBox="0 0 66 66" fill="none" xmlns="http://www.w3.org/2000/svg">
<rect width="65.0909" height="65.0909" rx="17.4545" fill="#EAD5C2" fill-opacity="0.56"/>
<path d="M35.5454 35.5454L41.5454 32.5454M38.5454 26.5454H38.5604M32.5454 23.5454H32.5604M26.5454 26.5454H26.5604M23.5454 32.5454H23.5604M35.5454 37.0454C35.5454 38.7023 34.2023 40.0454 32.5454 40.0454C30.8886 40.0454 29.5454 38.7023 29.5454 37.0454C29.5454 35.3886 30.8886 34.0454 32.5454 34.0454C34.2023 34.0454 35.5454 35.3886 35.5454 37.0454ZM46.0454 32.5454C46.0454 40.0013 40.0013 46.0454 32.5454 46.0454C25.0896 46.0454 19.0454 40.0013 19.0454 32.5454C19.0454 25.0896 25.0896 19.0454 32.5454 19.0454C40.0013 19.0454 46.0454 25.0896 46.0454 32.5454Z" stroke="#B3804C" stroke-width="2" stroke-linecap="round" stroke-linejoin="round"/>
</svg>
