<svg width="72" height="60" viewBox="0 0 72 60" fill="none" xmlns="http://www.w3.org/2000/svg">
<circle cx="50.6543" cy="36.1543" r="20.6543" fill="#B3804C" fill-opacity="0.12"/>
<path d="M30.0001 45C42.4265 45 52.5001 34.9264 52.5001 22.5C52.5001 17.8996 51.1195 13.6216 48.7499 10.0579M30.0001 45C22.1991 45 15.3253 41.0299 11.289 35M30.0001 45V52.5M17.5001 52.5H42.5001M52.5001 7.5L48.7501 10M11.2501 35L7.50012 37.5M42.5001 22.5C42.5001 29.4036 36.9037 35 30.0001 35C23.0966 35 17.5001 29.4036 17.5001 22.5C17.5001 15.5964 23.0966 10 30.0001 10C36.9037 10 42.5001 15.5964 42.5001 22.5Z" stroke="#B3804C" stroke-width="3.96296" stroke-linecap="round" stroke-linejoin="round"/>
</svg>
