<svg width="66" height="66" viewBox="0 0 66 66" fill="none" xmlns="http://www.w3.org/2000/svg">
<rect width="65.0909" height="65.0909" rx="17.4545" fill="#EAD5C2" fill-opacity="0.56"/>
<path d="M24.0874 43.6966C24.0328 44.2462 24.4341 44.736 24.9837 44.7905C25.5333 44.8451 26.023 44.4438 26.0776 43.8942L24.0874 43.6966ZM39.0133 43.8942C39.0679 44.4438 39.5577 44.8451 40.1072 44.7905C40.6568 44.736 41.0581 44.2462 41.0035 43.6966L39.0133 43.8942ZM46.0455 32.5454H45.0455C45.0455 39.449 39.449 45.0454 32.5455 45.0454V46.0454V47.0454C40.5536 47.0454 47.0455 40.5535 47.0455 32.5454H46.0455ZM32.5455 46.0454V45.0454C25.6419 45.0454 20.0455 39.449 20.0455 32.5454H19.0455H18.0455C18.0455 40.5535 24.5373 47.0454 32.5455 47.0454V46.0454ZM19.0455 32.5454H20.0455C20.0455 25.6419 25.6419 20.0454 32.5455 20.0454V19.0454V18.0454C24.5373 18.0454 18.0455 24.5373 18.0455 32.5454H19.0455ZM32.5455 19.0454V20.0454C39.449 20.0454 45.0455 25.6419 45.0455 32.5454H46.0455H47.0455C47.0455 24.5373 40.5536 18.0454 32.5455 18.0454V19.0454ZM35.5455 29.5454H34.5455C34.5455 30.65 33.65 31.5454 32.5455 31.5454V32.5454V33.5454C34.7546 33.5454 36.5455 31.7545 36.5455 29.5454H35.5455ZM32.5455 32.5454V31.5454C31.4409 31.5454 30.5455 30.65 30.5455 29.5454H29.5455H28.5455C28.5455 31.7545 30.3363 33.5454 32.5455 33.5454V32.5454ZM29.5455 29.5454H30.5455C30.5455 28.4408 31.4409 27.5454 32.5455 27.5454V26.5454V25.5454C30.3363 25.5454 28.5455 27.3363 28.5455 29.5454H29.5455ZM32.5455 26.5454V27.5454C33.65 27.5454 34.5455 28.4408 34.5455 29.5454H35.5455H36.5455C36.5455 27.3363 34.7546 25.5454 32.5455 25.5454V26.5454ZM25.0825 43.7954L26.0776 43.8942C26.4036 40.6106 29.1756 38.0454 32.5455 38.0454V37.0454V36.0454C28.1373 36.0454 24.514 39.4002 24.0874 43.6966L25.0825 43.7954ZM32.5455 37.0454V38.0454C35.9153 38.0454 38.6873 40.6106 39.0133 43.8942L40.0084 43.7954L41.0035 43.6966C40.577 39.4002 36.9536 36.0454 32.5455 36.0454V37.0454Z" fill="#B3804C"/>
</svg>
