<svg width="82" height="72" viewBox="0 0 82 72" fill="none" xmlns="http://www.w3.org/2000/svg">
<circle cx="55.6667" cy="33" r="26" fill="#B3804C" fill-opacity="0.1"/>
<path d="M48.4269 38.6878L58.4417 26.6701C59.2658 25.6812 59.6778 25.1867 59.9711 24.6319C60.2313 24.1398 60.4217 23.6138 60.5369 23.0692C60.6667 22.4552 60.6667 21.8116 60.6667 20.5243V18.6C60.6667 15.2397 60.6667 13.5595 60.0128 12.2761C59.4375 11.1471 58.5197 10.2292 57.3907 9.65396C56.1072 9 54.4271 9 51.0667 9H22.2667C18.9064 9 17.2263 9 15.9428 9.65396C14.8138 10.2292 13.8959 11.1471 13.3207 12.2761C12.6667 13.5595 12.6667 15.2397 12.6667 18.6V20.5243C12.6667 21.8116 12.6667 22.4552 12.7966 23.0692C12.9118 23.6138 13.1022 24.1398 13.3624 24.6319C13.6557 25.1867 14.0677 25.6812 14.8918 26.6701L24.9066 38.6878M40.8693 33.5967L58.767 10.6196M32.4642 33.5967L14.5849 10.6024M20.3369 18H53.0182M51.6667 48C51.6667 56.2843 44.951 63 36.6667 63C28.3825 63 21.6667 56.2843 21.6667 48C21.6667 39.7157 28.3825 33 36.6667 33C44.951 33 51.6667 39.7157 51.6667 48Z" stroke="#B3804C" stroke-width="3" stroke-linejoin="round"/>
</svg>
