<svg width="150" height="41" viewBox="0 0 150 41" fill="none" xmlns="http://www.w3.org/2000/svg">
<path d="M0 12.5C0 5.87258 5.37258 0.5 12 0.5H138C144.627 0.5 150 5.87258 150 12.5V28.5C150 35.1274 144.627 40.5 138 40.5H12C5.37258 40.5 0 35.1274 0 28.5V12.5Z" fill="#B3804C"/>
<path d="M18.6667 17.8333L19.8108 18.7487C20.5548 19.3438 20.9268 19.6414 21.3017 19.6876C21.6302 19.728 21.962 19.6449 22.2326 19.4543C22.5414 19.2367 22.7291 18.7989 23.1044 17.9232L24 15.8333L24.8956 17.9232C25.2709 18.7989 25.4586 19.2367 25.7674 19.4543C26.038 19.6449 26.3698 19.728 26.6983 19.6876C27.0732 19.6414 27.4452 19.3438 28.1892 18.7487L29.3333 17.8333L28 25.8333H20L18.6667 17.8333Z" fill="white"/>
<path d="M24.6667 15.1667C24.6667 15.5349 24.3682 15.8333 24 15.8333C23.6318 15.8333 23.3333 15.5349 23.3333 15.1667C23.3333 14.7985 23.6318 14.5 24 14.5C24.3682 14.5 24.6667 14.7985 24.6667 15.1667Z" fill="white"/>
<path d="M19.3333 17.1667C19.3333 17.5349 19.0349 17.8333 18.6667 17.8333C18.2985 17.8333 18 17.5349 18 17.1667C18 16.7985 18.2985 16.5 18.6667 16.5C19.0349 16.5 19.3333 16.7985 19.3333 17.1667Z" fill="white"/>
<path d="M30 17.1667C30 17.5349 29.7015 17.8333 29.3333 17.8333C28.9651 17.8333 28.6667 17.5349 28.6667 17.1667C28.6667 16.7985 28.9651 16.5 29.3333 16.5C29.7015 16.5 30 16.7985 30 17.1667Z" fill="white"/>
<path d="M18.6667 17.8333L20 25.8333H28L29.3333 17.8333M18.6667 17.8333L19.8108 18.7487C20.5548 19.3438 20.9268 19.6414 21.3017 19.6876C21.6302 19.728 21.962 19.6449 22.2326 19.4543C22.5414 19.2367 22.7291 18.7989 23.1044 17.9232L24 15.8333M18.6667 17.8333C19.0349 17.8333 19.3333 17.5349 19.3333 17.1667C19.3333 16.7985 19.0349 16.5 18.6667 16.5C18.2985 16.5 18 16.7985 18 17.1667C18 17.5349 18.2985 17.8333 18.6667 17.8333ZM29.3333 17.8333L28.1892 18.7487C27.4452 19.3438 27.0732 19.6414 26.6983 19.6876C26.3698 19.728 26.038 19.6449 25.7674 19.4543C25.4586 19.2367 25.2709 18.7989 24.8956 17.9232L24 15.8333M29.3333 17.8333C29.7015 17.8333 30 17.5349 30 17.1667C30 16.7985 29.7015 16.5 29.3333 16.5C28.9651 16.5 28.6667 16.7985 28.6667 17.1667C28.6667 17.5349 28.9651 17.8333 29.3333 17.8333ZM24 15.8333C24.3682 15.8333 24.6667 15.5349 24.6667 15.1667C24.6667 14.7985 24.3682 14.5 24 14.5C23.6318 14.5 23.3333 14.7985 23.3333 15.1667C23.3333 15.5349 23.6318 15.8333 24 15.8333ZM24 15.1667H24.0067M29.3333 17.1667H29.34M18.6667 17.1667H18.6733" stroke="white" stroke-linecap="round" stroke-linejoin="round"/>
<path d="M41.0625 26.5V14.8594H43.5078L46.1172 21.6797C46.2214 21.9766 46.3568 22.3672 46.5234 22.8516C46.6901 23.3307 46.8411 23.7734 46.9766 24.1797C47.1068 23.7734 47.2552 23.3307 47.4219 22.8516C47.5885 22.3672 47.724 21.9766 47.8281 21.6797L50.3984 14.8594H52.8516V26.5H51.1484V20.1562C51.1484 19.7396 51.1536 19.2552 51.1641 18.7031C51.1745 18.1458 51.1875 17.5911 51.2031 17.0391C50.9896 17.6693 50.7865 18.263 50.5938 18.8203C50.4062 19.3776 50.25 19.8229 50.125 20.1562L47.6719 26.5H46.25L43.7734 20.1562C43.6536 19.8385 43.5 19.4193 43.3125 18.8984C43.1302 18.3724 42.9323 17.8073 42.7188 17.2031C42.7344 17.7344 42.7474 18.2604 42.7578 18.7812C42.7682 19.3021 42.7734 19.7604 42.7734 20.1562V26.5H41.0625ZM58.3984 26.6875C57.612 26.6875 56.9219 26.5052 56.3281 26.1406C55.7344 25.776 55.2708 25.2708 54.9375 24.625C54.6094 23.9792 54.4453 23.2344 54.4453 22.3906C54.4453 21.5365 54.6094 20.7865 54.9375 20.1406C55.2708 19.4896 55.7344 18.9818 56.3281 18.6172C56.9219 18.2474 57.612 18.0625 58.3984 18.0625C59.1849 18.0625 59.8724 18.2474 60.4609 18.6172C61.0547 18.9818 61.5156 19.4896 61.8438 20.1406C62.1771 20.7865 62.3438 21.5365 62.3438 22.3906C62.3438 23.2344 62.1771 23.9792 61.8438 24.625C61.5156 25.2708 61.0547 25.776 60.4609 26.1406C59.8724 26.5052 59.1849 26.6875 58.3984 26.6875ZM58.3984 25.2656C59.1068 25.2656 59.6641 25.0052 60.0703 24.4844C60.4766 23.9635 60.6797 23.2656 60.6797 22.3906C60.6797 21.5052 60.474 20.7995 60.0625 20.2734C59.6562 19.7474 59.1016 19.4844 58.3984 19.4844C57.6953 19.4844 57.138 19.7474 56.7266 20.2734C56.3203 20.7943 56.1172 21.5 56.1172 22.3906C56.1172 23.2708 56.3203 23.9714 56.7266 24.4922C57.1328 25.0078 57.6901 25.2656 58.3984 25.2656ZM66.8594 26.6953C66.2292 26.6953 65.6615 26.5938 65.1562 26.3906C64.651 26.1875 64.2422 25.8854 63.9297 25.4844C63.6224 25.0833 63.4505 24.5859 63.4141 23.9922H65.0391C65.1328 24.9193 65.7292 25.3828 66.8281 25.3828C67.349 25.3828 67.7604 25.276 68.0625 25.0625C68.3698 24.849 68.5234 24.5781 68.5234 24.25C68.5234 23.9688 68.4141 23.7448 68.1953 23.5781C67.9766 23.4062 67.6901 23.2812 67.3359 23.2031L65.9688 22.8984C64.3906 22.5547 63.6016 21.7682 63.6016 20.5391C63.6016 19.8099 63.8906 19.2161 64.4688 18.7578C65.0521 18.2995 65.8151 18.0703 66.7578 18.0703C67.6901 18.0703 68.4557 18.3125 69.0547 18.7969C69.6589 19.276 69.9714 19.9323 69.9922 20.7656H68.4141C68.4089 20.3646 68.2578 20.0339 67.9609 19.7734C67.6641 19.5078 67.2708 19.375 66.7812 19.375C66.3125 19.375 65.9401 19.4844 65.6641 19.7031C65.388 19.9219 65.25 20.1901 65.25 20.5078C65.25 20.7891 65.3542 21.0156 65.5625 21.1875C65.776 21.3594 66.0677 21.487 66.4375 21.5703L67.8438 21.8828C68.6458 22.0599 69.237 22.3333 69.6172 22.7031C69.9974 23.0729 70.1875 23.5573 70.1875 24.1562C70.1875 24.6823 70.0417 25.1354 69.75 25.5156C69.4635 25.8906 69.0703 26.1823 68.5703 26.3906C68.0703 26.5938 67.5 26.6953 66.8594 26.6953ZM75.7812 18.25V19.6094H74.1094V24.3203C74.1094 24.6276 74.1719 24.8411 74.2969 24.9609C74.4219 25.0807 74.6484 25.1406 74.9766 25.1406H75.7812V26.5H74.7422C73.2161 26.5 72.4531 25.8438 72.4531 24.5312V19.6094H71V18.25H72.4531V16H74.1094V18.25H75.7812ZM81.0312 26.5V14.8594H85.3438C86.5885 14.8594 87.5755 15.1849 88.3047 15.8359C89.0339 16.487 89.3984 17.3698 89.3984 18.4844C89.3984 19.2292 89.2292 19.875 88.8906 20.4219C88.5521 20.9635 88.0755 21.3828 87.4609 21.6797C86.8464 21.9714 86.1224 22.1172 85.2891 22.1172H82.7656V26.5H81.0312ZM82.7656 20.6172H85.2578C86.0078 20.6172 86.599 20.4271 87.0312 20.0469C87.4688 19.6615 87.6875 19.1406 87.6875 18.4844C87.6875 17.8281 87.4688 17.3125 87.0312 16.9375C86.599 16.5573 86.0078 16.3672 85.2578 16.3672H82.7656V20.6172ZM93.8828 26.6875C93.0964 26.6875 92.4062 26.5052 91.8125 26.1406C91.2188 25.776 90.7552 25.2708 90.4219 24.625C90.0938 23.9792 89.9297 23.2344 89.9297 22.3906C89.9297 21.5365 90.0938 20.7865 90.4219 20.1406C90.7552 19.4896 91.2188 18.9818 91.8125 18.6172C92.4062 18.2474 93.0964 18.0625 93.8828 18.0625C94.6693 18.0625 95.3568 18.2474 95.9453 18.6172C96.5391 18.9818 97 19.4896 97.3281 20.1406C97.6615 20.7865 97.8281 21.5365 97.8281 22.3906C97.8281 23.2344 97.6615 23.9792 97.3281 24.625C97 25.2708 96.5391 25.776 95.9453 26.1406C95.3568 26.5052 94.6693 26.6875 93.8828 26.6875ZM93.8828 25.2656C94.5911 25.2656 95.1484 25.0052 95.5547 24.4844C95.9609 23.9635 96.1641 23.2656 96.1641 22.3906C96.1641 21.5052 95.9583 20.7995 95.5469 20.2734C95.1406 19.7474 94.5859 19.4844 93.8828 19.4844C93.1797 19.4844 92.6224 19.7474 92.2109 20.2734C91.8047 20.7943 91.6016 21.5 91.6016 22.3906C91.6016 23.2708 91.8047 23.9714 92.2109 24.4922C92.6172 25.0078 93.1745 25.2656 93.8828 25.2656ZM99.2891 29.7656V18.25H100.906V19.4375H100.93C101.19 18.9844 101.547 18.6458 102 18.4219C102.453 18.1979 102.948 18.0859 103.484 18.0859C104.193 18.0859 104.815 18.2682 105.352 18.6328C105.888 18.9922 106.305 19.4948 106.602 20.1406C106.904 20.7812 107.055 21.526 107.055 22.375C107.055 23.224 106.906 23.9714 106.609 24.6172C106.312 25.2578 105.896 25.7604 105.359 26.125C104.823 26.4844 104.195 26.6641 103.477 26.6641C102.94 26.6641 102.456 26.5469 102.023 26.3125C101.591 26.0781 101.237 25.7266 100.961 25.2578H100.938V29.7656H99.2891ZM103.141 25.2422C103.807 25.2422 104.346 24.9974 104.758 24.5078C105.174 24.0182 105.383 23.3073 105.383 22.375C105.383 21.4427 105.174 20.7318 104.758 20.2422C104.346 19.7474 103.807 19.5 103.141 19.5C102.438 19.5 101.875 19.763 101.453 20.2891C101.036 20.8099 100.828 21.5052 100.828 22.375C100.828 23.2396 101.036 23.9349 101.453 24.4609C101.875 24.9818 102.438 25.2422 103.141 25.2422ZM111.492 26.6641C110.93 26.6641 110.422 26.5417 109.969 26.2969C109.521 26.0469 109.164 25.6797 108.898 25.1953C108.638 24.7109 108.508 24.1094 108.508 23.3906V18.25H110.156V23.1875C110.156 23.849 110.315 24.349 110.633 24.6875C110.951 25.0208 111.396 25.1875 111.969 25.1875C112.526 25.1875 112.995 25.0156 113.375 24.6719C113.76 24.3229 113.953 23.7656 113.953 23V18.25H115.602V26.5H113.984V25.2578C113.422 26.1953 112.591 26.6641 111.492 26.6641ZM119.109 14.8594V26.5H117.461V14.8594H119.109ZM123.492 26.6328C122.669 26.6328 121.987 26.4245 121.445 26.0078C120.904 25.5859 120.633 24.9635 120.633 24.1406C120.633 23.5156 120.786 23.0365 121.094 22.7031C121.406 22.3646 121.81 22.1224 122.305 21.9766C122.805 21.8307 123.333 21.724 123.891 21.6562C124.406 21.5938 124.815 21.5417 125.117 21.5C125.419 21.4583 125.633 21.3958 125.758 21.3125C125.888 21.2292 125.953 21.0859 125.953 20.8828V20.8125C125.953 20.4115 125.807 20.0833 125.516 19.8281C125.224 19.5677 124.815 19.4375 124.289 19.4375C123.763 19.4375 123.333 19.5651 123 19.8203C122.667 20.0703 122.484 20.3854 122.453 20.7656H120.836C120.872 19.9792 121.203 19.3359 121.828 18.8359C122.453 18.3359 123.281 18.0859 124.312 18.0859C125.328 18.0859 126.128 18.3359 126.711 18.8359C127.294 19.3359 127.586 20.0052 127.586 20.8438V26.5H125.961V25.3281H125.93C125.758 25.6615 125.484 25.9635 125.109 26.2344C124.74 26.5 124.201 26.6328 123.492 26.6328ZM123.828 25.3047C124.557 25.3047 125.094 25.1172 125.438 24.7422C125.786 24.362 125.961 23.9193 125.961 23.4141V22.4453C125.852 22.5339 125.604 22.6146 125.219 22.6875C124.833 22.7552 124.422 22.8203 123.984 22.8828C123.531 22.9505 123.133 23.0781 122.789 23.2656C122.445 23.4531 122.273 23.7552 122.273 24.1719C122.273 24.526 122.411 24.8047 122.688 25.0078C122.969 25.2057 123.349 25.3047 123.828 25.3047ZM129.445 26.5V18.25H131.023V19.5859H131.055C131.206 19.1328 131.443 18.7812 131.766 18.5312C132.094 18.276 132.521 18.1484 133.047 18.1484C133.172 18.1484 133.286 18.1536 133.391 18.1641C133.495 18.1745 133.581 18.1823 133.648 18.1875V19.7266C133.586 19.7109 133.474 19.6953 133.312 19.6797C133.151 19.6589 132.974 19.6484 132.781 19.6484C132.318 19.6484 131.919 19.8099 131.586 20.1328C131.258 20.4557 131.094 20.9531 131.094 21.625V26.5H129.445Z" fill="white"/>
</svg>
