<svg width="73" height="72" viewBox="0 0 73 72" fill="none" xmlns="http://www.w3.org/2000/svg">
<path d="M12.3333 27V21.6C12.3333 18.2397 12.3333 16.5595 12.9872 15.2761C13.5625 14.1471 14.4803 13.2292 15.6093 12.654C16.8928 12 18.5729 12 21.9333 12H50.7333C54.0936 12 55.7737 12 57.0572 12.654C58.1862 13.2292 59.1041 14.1471 59.6793 15.2761C60.3333 16.5595 60.3333 18.2397 60.3333 21.6V50.4C60.3333 53.7603 60.3333 55.4405 59.6793 56.7239C59.1041 57.8529 58.1862 58.7708 57.0572 59.346C55.7737 60 54.0936 60 50.7333 60H31.8333M33.3333 48H51.3333M24.3333 33L33.3333 27V36L51.3333 21M51.3333 21H42.3333M51.3333 21V30M21.3333 43.5001C19.8333 43.128 17.3885 43.1143 15.3332 43.128C14.646 43.1326 15.0615 43.1034 14.1333 43.128C11.711 43.2036 9.33819 44.2103 9.33326 47.0626C9.328 50.1011 12.3332 51.0001 15.3332 51.0001C18.3332 51.0001 21.3333 51.6937 21.3333 54.9376C21.3333 57.3754 18.9108 58.4435 15.8915 58.7972C13.4915 58.7972 12.3333 58.8751 9.33325 58.5001M15.3333 60V63M15.3333 39V42" stroke="#B3804C" stroke-width="3" stroke-linecap="round" stroke-linejoin="round"/>
</svg>
