<svg width="82" height="72" viewBox="0 0 82 72" fill="none" xmlns="http://www.w3.org/2000/svg">
<circle cx="55.3333" cy="33" r="26" fill="#B3804C" fill-opacity="0.32"/>
<path d="M21.4827 21.1494H21.5127M31.8686 9H23.7333C18.6928 9 16.1725 9 14.2473 9.98094C12.5539 10.8438 11.1771 12.2206 10.3142 13.9141C9.33325 15.8393 9.33325 18.3595 9.33325 23.4V31.5353C9.33325 33.7366 9.33325 34.8373 9.58192 35.8731C9.80239 36.7914 10.166 37.6693 10.6595 38.4746C11.2161 39.3828 11.9943 40.1611 13.5509 41.7177L27.6509 55.8177C31.215 59.3818 32.9971 61.1639 35.0521 61.8316C36.8597 62.4189 38.8068 62.4189 40.6144 61.8316C42.6694 61.1639 44.4515 59.3818 48.0156 55.8177L56.1509 47.6823C59.715 44.1182 61.4972 42.3361 62.1648 40.2812C62.7522 38.4736 62.7522 36.5264 62.1648 34.7188C61.4971 32.6639 59.7151 30.8818 56.1509 27.3177L42.0509 13.2177C40.4943 11.6611 39.7161 10.8828 38.8078 10.3262C38.0026 9.83278 37.1247 9.46914 36.2063 9.24867C35.1705 9 34.0699 9 31.8686 9ZM22.9827 21.1494C22.9827 21.9778 22.3111 22.6494 21.4827 22.6494C20.6542 22.6494 19.9827 21.9778 19.9827 21.1494C19.9827 20.321 20.6542 19.6494 21.4827 19.6494C22.3111 19.6494 22.9827 20.321 22.9827 21.1494Z" stroke="#B3804C" stroke-width="3" stroke-linecap="round" stroke-linejoin="round"/>
</svg>
