<svg width="40" height="40" viewBox="0 0 40 40" fill="none" xmlns="http://www.w3.org/2000/svg">
<path d="M20 5L23.1835 8.11911L27.5 7.00962L28.6974 11.3026L32.9904 12.5L31.8809 16.8165L35 20L31.8809 23.1835L32.9904 27.5L28.6974 28.6974L27.5 32.9904L23.1835 31.8809L20 35L16.8165 31.8809L12.5 32.9904L11.3026 28.6974L7.00962 27.5L8.11911 23.1835L5 20L8.11911 16.8165L7.00962 12.5L11.3026 11.3026L12.5 7.00962L16.8165 8.11911L20 5Z" fill="#B3804C"/>
<path d="M15 20L18.3333 23.3333L25 16.6667M20 5L23.1835 8.11911L27.5 7.00962L28.6974 11.3026L32.9904 12.5L31.8809 16.8165L35 20L31.8809 23.1835L32.9904 27.5L28.6974 28.6974L27.5 32.9904L23.1835 31.8809L20 35L16.8165 31.8809L12.5 32.9904L11.3026 28.6974L7.00962 27.5L8.11911 23.1835L5 20L8.11911 16.8165L7.00962 12.5L11.3026 11.3026L12.5 7.00962L16.8165 8.11911L20 5Z" stroke="white" stroke-width="1.66667" stroke-linecap="round" stroke-linejoin="round"/>
</svg>
