<svg width="40" height="40" viewBox="0 0 40 40" fill="none" xmlns="http://www.w3.org/2000/svg">
<path d="M12.3729 19.9641L8.33333 23.6364V32.3333C8.33333 33.2668 8.33333 33.7335 8.51499 34.09C8.67478 34.4036 8.92975 34.6586 9.24335 34.8183C9.59987 35 10.0666 35 11 35H17.3333C18.2668 35 18.7335 35 19.09 34.8183C19.4036 34.6586 19.6586 34.4036 19.8183 34.09C20 33.7335 20 33.2668 20 32.3333L20 23.6364L15.9605 19.9641L15.9605 19.964C15.327 19.3882 15.0103 19.1002 14.6514 18.9912C14.3354 18.8951 13.9979 18.8951 13.6819 18.9912C13.3231 19.1002 13.0063 19.3882 12.3729 19.9641Z" fill="#B3804C"/>
<path d="M16.6667 12.5V10.3333C16.6667 8.46649 16.6667 7.53307 17.03 6.82003C17.3496 6.19282 17.8595 5.68289 18.4867 5.36331C19.1997 5 20.1332 5 22 5H29.6667C31.5335 5 32.4669 5 33.18 5.36331C33.8072 5.68289 34.3171 6.19282 34.6367 6.82003C35 7.53307 35 8.46649 35 10.3333V29.6667C35 31.5335 35 32.4669 34.6367 33.18C34.3171 33.8072 33.8072 34.3171 33.18 34.6367C32.4669 35 31.5335 35 29.6667 35H26.6667M23.3333 11.6667H28.3333M23.3333 18.3333H28.3333M5 26.6667L12.3729 19.9641C13.0063 19.3882 13.3231 19.1002 13.6819 18.9912C13.9979 18.8951 14.3354 18.8951 14.6514 18.9912C15.0103 19.1002 15.327 19.3882 15.9605 19.9641L23.3333 26.6667M8.33333 23.6364V32.3333C8.33333 33.2668 8.33333 33.7335 8.51499 34.09C8.67478 34.4036 8.92975 34.6586 9.24335 34.8183C9.59987 35 10.0666 35 11 35H17.3333C18.2668 35 18.7335 35 19.09 34.8183C19.4036 34.6586 19.6586 34.4036 19.8183 34.09C20 33.7335 20 33.2668 20 32.3333L20 23.6364" stroke="#B3804C" stroke-width="1.66667" stroke-linecap="round" stroke-linejoin="round"/>
</svg>
