<svg width="40" height="40" viewBox="0 0 40 40" fill="none" xmlns="http://www.w3.org/2000/svg">
<path d="M28.3333 15C28.3333 19.6024 24.6024 23.3333 20 23.3333C15.3976 23.3333 11.6667 19.6024 11.6667 15C11.6667 10.3976 15.3976 6.66667 20 6.66667C24.6024 6.66667 28.3333 10.3976 28.3333 15Z" fill="#B3804C"/>
<path d="M20 30C28.2843 30 35 23.2843 35 15C35 11.9331 34.0796 9.0811 32.4998 6.70529M20 30C14.7993 30 10.2168 27.3533 7.52592 23.3333M20 30V35M11.6667 35H28.3333M35 5L32.5 6.66667M7.5 23.3333L5 25M28.3333 15C28.3333 19.6024 24.6024 23.3333 20 23.3333C15.3976 23.3333 11.6667 19.6024 11.6667 15C11.6667 10.3976 15.3976 6.66667 20 6.66667C24.6024 6.66667 28.3333 10.3976 28.3333 15Z" stroke="#B3804C" stroke-width="1.66667" stroke-linecap="round" stroke-linejoin="round"/>
</svg>
