<svg width="36" height="36" viewBox="0 0 36 36" fill="none" xmlns="http://www.w3.org/2000/svg">
<path d="M3 18C3 23.799 7.70101 28.5 13.5 28.5C15.1104 28.5 16.6361 28.1375 18 27.4896C15.3355 26.2238 13.2886 23.8688 12.4348 21C12.1519 20.0494 12 19.0425 12 18C12 16.9575 12.1519 15.9506 12.4348 15C13.2886 12.1312 15.3355 9.77623 18 8.51045C16.6361 7.86254 15.1104 7.5 13.5 7.5C7.70101 7.5 3 12.201 3 18Z" fill="#B3804C"/>
<path d="M22.5 28.5C28.299 28.5 33 23.799 33 18C33 12.201 28.299 7.5 22.5 7.5C20.8896 7.5 19.3639 7.86254 18 8.51045C21.5474 10.1956 24 13.8114 24 18C24 22.1886 21.5474 25.8044 18 27.4896C19.3639 28.1375 20.8896 28.5 22.5 28.5Z" fill="#B3804C"/>
<path d="M12.4348 15H23.5652M12.4348 15C12.1519 15.9506 12 16.9575 12 18C12 19.0425 12.1519 20.0494 12.4348 21M12.4348 15C13.2886 12.1312 15.3355 9.77623 18 8.51045M12.4348 21H23.5652M12.4348 21C13.2886 23.8688 15.3355 26.2238 18 27.4896M18 8.51045C16.6361 7.86254 15.1104 7.5 13.5 7.5C7.70101 7.5 3 12.201 3 18C3 23.799 7.70101 28.5 13.5 28.5C15.1104 28.5 16.6361 28.1375 18 27.4896M18 8.51045C19.3639 7.86254 20.8896 7.5 22.5 7.5C28.299 7.5 33 12.201 33 18C33 23.799 28.299 28.5 22.5 28.5C20.8896 28.5 19.3639 28.1375 18 27.4896M18 8.51045C21.5474 10.1956 24 13.8114 24 18C24 22.1886 21.5474 25.8044 18 27.4896" stroke="#B3804C" stroke-width="1.5" stroke-linecap="round" stroke-linejoin="round"/>
</svg>
